<!DOCTYPE svg PUBLIC "-//W3C//DTD SVG 1.1//EN" "http://www.w3.org/Graphics/SVG/1.1/DTD/svg11.dtd">
<!-- Uploaded to: SVG Repo, www.svgrepo.com, Transformed by: SVG Repo Mixer Tools -->
<svg fill="#ffffff" height="800px" width="800px" version="1.1" id="Layer_1" xmlns="http://www.w3.org/2000/svg" xmlns:xlink="http://www.w3.org/1999/xlink" viewBox="0 0 512 512" xml:space="preserve" stroke="#ffffff">
<g id="SVGRepo_bgCarrier" stroke-width="0"/>
<g id="SVGRepo_tracerCarrier" stroke-linecap="round" stroke-linejoin="round"/>
<g id="SVGRepo_iconCarrier"> <g> <g> <path d="M477.925,208.227h-18.102c-4.331,0-7.842,3.51-7.842,7.842c0,4.331,3.511,7.842,7.842,7.842h18.102 c10.141,0,18.391,8.306,18.391,18.515c0,10.21-8.249,18.515-18.391,18.515h-52.057c-16.445,0-29.823,13.425-29.823,29.927v14.338 c0,4.332,3.511,7.843,7.842,7.843c4.332,0,7.843-3.511,7.843-7.843v-14.338c0-7.853,6.341-14.242,14.138-14.242h52.057 c18.789,0,34.075-15.341,34.075-34.198C512,223.569,496.714,208.227,477.925,208.227z"/> </g> </g> <g> <g> <path d="M439.582,228.28H398.67c-10.815,0-19.614-8.858-19.614-19.744s8.799-19.744,19.614-19.744h14.69 c4.332,0,7.842-3.51,7.842-7.842s-3.51-7.842-7.842-7.842h-14.69c-19.463,0-35.299,15.892-35.299,35.427 c0,19.537,15.835,35.43,35.299,35.43h40.912c4.332,0,7.842-3.511,7.842-7.842C447.424,231.791,443.914,228.28,439.582,228.28z"/> </g> </g> <g> <g> <path d="M448.469,326.766h-15.937c-4.332,0-7.842,3.511-7.842,7.842c0,4.332,3.51,7.843,7.842,7.843h8.094v72.02 c0,14.428-11.486,26.166-25.604,26.166h-37.809c-11.167,0-20.68-7.347-24.172-17.555h23.031c4.772,0,8.641-3.883,8.641-8.673 c0-4.79-3.868-8.672-8.641-8.672H351.61v-10.406h24.462c4.772,0,8.641-3.883,8.641-8.674c0-4.789-3.868-8.671-8.641-8.671H351.61 v-10.407h24.462c4.772,0,8.641-3.883,8.641-8.674c0-4.788-3.868-8.671-8.641-8.671H351.61v-7.786h44.325 c4.331,0,7.842-3.511,7.842-7.843c0-4.331-3.51-7.842-7.842-7.842h-52.167c-4.331,0-7.843,3.511-7.843,7.842v79.863 c0,12.741,5.654,24.164,14.544,31.846v12.279c0,12.477,10.041,22.628,22.385,22.628h46.529c12.342,0,22.384-10.151,22.384-22.628 v-12.28c8.89-7.682,14.543-19.104,14.543-31.845v-79.863C456.311,330.277,452.801,326.766,448.469,326.766z M426.085,458.594 h-0.001c0,3.828-3.005,6.944-6.7,6.944h-46.529c-3.695,0-6.7-3.115-6.7-6.944v-3.81c3.522,0.994,7.229,1.537,11.059,1.537h37.809 c3.832,0,7.539-0.543,11.062-1.538V458.594z"/> </g> </g> <g> <g> <path d="M354.09,233.15c-3.745-4.56-9.272-7.175-15.165-7.175h-20.479c-5.653,0-11.036,2.445-14.772,6.712 c-6.596,7.544-14.204,13.828-22.573,18.737l0.01-24.702c0-4.331-3.51-7.842-7.842-7.842c-4.331,0-7.843,3.51-7.843,7.842v8.362 c-1.87-0.799-3.854-1.377-5.919-1.706c-9.881-33.615-37.878-59.372-72.459-65.479c0.855-2.232,1.344-4.645,1.344-7.175 c0-11.083-8.991-20.099-20.043-20.099h-55.588c-11.052,0-20.043,9.016-20.043,20.099c0,2.531,0.488,4.943,1.343,7.174 c-34.58,6.107-62.577,31.863-72.457,65.48c-2.066,0.328-4.049,0.906-5.92,1.706v-61.51c0-70.091,56.018-127.113,124.873-127.113 s124.872,57.022,124.872,127.113v16.551c0,4.331,3.511,7.843,7.843,7.843s7.842-3.511,7.842-7.843v-16.551 c0-78.739-63.053-142.798-140.557-142.798C63.054,30.775,0,94.834,0,173.573l0.054,184.243c0,30.791,12.905,58.575,33.504,78.078 H24.25c-10.832,0-19.645,8.837-19.645,19.701v5.93c0,10.863,8.814,19.699,19.645,19.699h236.052 c10.832,0,19.646-8.837,19.646-19.699v-5.93c0-10.863-8.814-19.701-19.646-19.701h-12.747 c20.601-19.503,33.504-47.287,33.504-78.078l0.01-24.537c38.778-10.561,69.231-42.738,77.147-83.87 C359.329,243.627,357.825,237.702,354.09,233.15z M112.762,156.308h55.588c2.403,0,4.359,1.981,4.359,4.416 c0,2.436-1.956,4.417-4.359,4.417h-55.588c-2.403,0-4.359-1.981-4.359-4.417C108.404,158.29,110.359,156.308,112.762,156.308z M109.897,182.196h61.318c32.839,0,60.89,21.202,71.702,50.866H38.198C49.01,203.398,77.059,182.196,109.897,182.196z M260.302,451.579c2.184,0,3.962,1.801,3.962,4.016v5.93c0,2.213-1.778,4.014-3.962,4.014H24.25c-2.184,0-3.96-1.801-3.96-4.014 v-5.93c0-2.214,1.776-4.016,3.96-4.016H260.302z M264.31,371.824H103.161c-4.33,0-7.842,3.51-7.842,7.842s3.511,7.842,7.842,7.842 h157.317c-6.913,20.35-20.716,37.447-38.564,48.386H59.199c-17.847-10.939-31.65-28.036-38.563-48.386h42.792 c4.332,0,7.842-3.51,7.842-7.842c0-4.331-3.511-7.842-7.842-7.842H16.804c-0.696-4.568-1.066-9.245-1.066-14.008v-23.731 c0.187,0.013,0.373,0.028,0.562,0.028h22.995c4.772,0,8.639-3.883,8.639-8.673s-3.868-8.673-8.639-8.673H16.3 c-0.189,0-0.374,0.017-0.562,0.028V293.58h64.238c4.771,0,8.639-3.883,8.639-8.673c0-4.79-3.868-8.672-8.639-8.672H15.738v-17.346 c0-5.595,4.418-10.146,9.846-10.146h229.943c5.429,0,9.846,4.551,9.846,10.146v98.927h0.001 C265.375,362.58,265.005,367.256,264.31,371.824z M342.814,246.443c-6.483,33.684-30.61,60.324-61.738,70.438l0.02-47.717 c12.972-6.176,24.628-14.992,34.385-26.151c0.754-0.86,1.836-1.355,2.966-1.355h20.479c1.18,0,2.288,0.528,3.042,1.445 C342.735,244.038,343.043,245.256,342.814,246.443z"/> </g> </g> </g>
</svg>