<svg width="35" height="35" viewBox="0 0 35 35" fill="none" xmlns="http://www.w3.org/2000/svg">
<path d="M5.11877 11.6667H29.9104V26.6292C29.9104 27.6889 29.4895 28.7053 28.7401 29.4546C27.9907 30.204 26.9744 30.625 25.9146 30.625H9.11461C8.05485 30.625 7.03849 30.204 6.28913 29.4546C5.53976 28.7053 5.11877 27.6889 5.11877 26.6292V11.6667Z" stroke="white" stroke-linecap="round" stroke-linejoin="round"/>
<path d="M15.2979 4.375H19.6729C20.8333 4.375 21.9461 4.83594 22.7665 5.65641C23.587 6.47688 24.0479 7.58968 24.0479 8.75V11.6667H10.9229V8.75C10.9229 7.58968 11.3839 6.47688 12.2043 5.65641C13.0248 4.83594 14.1376 4.375 15.2979 4.375Z" stroke="white" stroke-linecap="round" stroke-linejoin="round"/>
<path d="M21.1604 28.4375C24.7848 28.4375 27.7229 25.4994 27.7229 21.875C27.7229 18.2506 24.7848 15.3125 21.1604 15.3125C17.536 15.3125 14.5979 18.2506 14.5979 21.875C14.5979 25.4994 17.536 28.4375 21.1604 28.4375Z" fill="#78B591"/>
</svg>
