<svg width="18" height="18" viewBox="0 0 18 18" fill="none" xmlns="http://www.w3.org/2000/svg">
<path d="M3.27 4H14.73C15.4646 4 16.1692 4.29184 16.6887 4.81132C17.2082 5.33079 17.5 6.03535 17.5 6.77V14.26C17.5 14.9867 17.2113 15.6836 16.6975 16.1975C16.1836 16.7113 15.4867 17 14.76 17H3.24C2.51331 17 1.81638 16.7113 1.30253 16.1975C0.788678 15.6836 0.5 14.9867 0.5 14.26V6.77C0.5 6.03535 0.791838 5.33079 1.31131 4.81132C1.83079 4.29184 2.53535 4 3.27 4Z" stroke="#BBBBC0" stroke-linecap="round" stroke-linejoin="round"/>
<path d="M7.51 0.660004H10.51C10.9079 0.667859 11.2869 0.831462 11.5655 1.11567C11.8441 1.39988 12.0001 1.78202 12 2.18V4H6V2.18C5.99999 1.7786 6.15876 1.39349 6.44166 1.10872C6.72455 0.823952 7.10861 0.662644 7.51 0.660004Z" stroke="#BBBBC0" stroke-linecap="round" stroke-linejoin="round"/>
</svg>
