<svg width="18" height="16" viewBox="0 0 18 16" fill="none" xmlns="http://www.w3.org/2000/svg">
<path d="M8.76229 8.13095V12.8849M11.5051 10.5079H6.01943M1 4.96164H16.5429V13.0909C16.5429 13.6667 16.2789 14.2189 15.8091 14.626C15.3393 15.0332 14.7021 15.2619 14.0377 15.2619H3.50514C2.84074 15.2619 2.20355 15.0332 1.73374 14.626C1.26393 14.2189 1 13.6667 1 13.0909V4.96164ZM7.38171 1H10.1246C10.852 1 11.5497 1.25043 12.0641 1.6962C12.5784 2.14197 12.8674 2.74657 12.8674 3.37698V4.96164H4.63886V3.37698C4.63886 2.74657 4.92784 2.14197 5.44222 1.6962C5.95661 1.25043 6.65426 1 7.38171 1Z" stroke="white" stroke-linecap="round" stroke-linejoin="round"/>
</svg>
