<svg width="67" height="66" viewBox="0 0 67 66" fill="none" xmlns="http://www.w3.org/2000/svg">
<path d="M61.3998 33.2245C60.616 32.4939 59.7545 31.7997 58.8331 31.1522C59.7812 28.7594 60.2631 26.2325 60.2631 23.6273C60.2631 17.7637 57.779 12.2459 53.4173 8.33923C53.6119 7.97159 53.6904 7.5551 53.6399 7.1328C53.5736 6.57709 53.2919 6.08337 52.8471 5.7428C51.9473 5.05303 50.9441 4.41971 49.8656 3.86026C43.3956 0.504957 35.6702 0.504828 29.2006 3.86039C28.1218 4.41971 27.1187 5.05316 26.2191 5.74268C25.7742 6.08363 25.4926 6.57722 25.4263 7.1328C25.3758 7.5551 25.4543 7.97147 25.6486 8.33872C23.5186 10.2514 21.7881 12.6027 20.6167 15.1924C20.3861 15.702 20.6188 16.2993 21.136 16.5263C21.2717 16.5859 21.4133 16.614 21.553 16.614C21.9454 16.614 22.3201 16.3907 22.4902 16.0147C23.5237 13.7298 25.0389 11.6497 26.903 9.94515L27.6341 10.8443C24.0454 14.1377 22.0061 18.7417 22.0061 23.6273C22.0061 25.4938 22.3008 27.3202 22.8812 29.0694C22.5309 29.2458 22.1871 29.4296 21.8478 29.6177C21.1883 27.6975 20.8534 25.6878 20.8534 23.6271C20.8534 22.5405 20.9485 21.4498 21.1364 20.3857C21.2334 19.8361 20.8597 19.3129 20.3017 19.2175C19.744 19.121 19.2127 19.49 19.1158 20.0397C18.9079 21.2177 18.8024 22.4247 18.8024 23.6271C18.8024 26.0636 19.2254 28.437 20.058 30.6952C16.5136 33.0203 13.9369 35.8998 12.5036 39.125C11.9525 38.2906 11.5085 37.2623 11.1787 36.0488C10.442 33.3374 9.17629 31.0569 7.41688 29.2706C7.22373 29.0746 6.95822 28.964 6.6808 28.964H1.02558C0.56875 28.964 0.167011 29.2616 0.0403396 29.6941C-0.0864631 30.1265 0.0926834 30.5891 0.479242 30.829C4.00054 33.0129 5.63327 37.7537 5.47113 45.3227C5.26817 54.8005 10.0604 56.015 13.681 56.796C14.8141 58.5325 16.3699 59.9319 18.4249 61.0646C18.5834 61.1519 18.7551 61.1934 18.9247 61.1934C19.2839 61.1934 19.6326 61.0071 19.8205 60.6763C20.097 60.1896 19.9206 59.5739 19.4264 59.3015C17.5468 58.2657 16.1664 56.9843 15.205 55.3829C13.4223 52.4245 13.2731 48.6504 13.2731 45.0381C13.2731 43.8111 13.4609 42.5855 13.8311 41.3957C14.9514 37.7948 17.8015 34.4425 21.8562 31.9567C22.7193 31.4275 23.6396 30.9344 24.5898 30.4923C25.4035 30.1149 26.2504 29.7703 27.1125 29.4608C27.4893 29.6929 27.9326 29.8295 28.4088 29.8295H50.6579C50.9919 29.8295 51.3101 29.7629 51.6005 29.6433C52.5352 29.9968 53.4465 30.3906 54.3131 30.8225C55.2554 31.2906 56.1602 31.8082 57.0028 32.3617C58.0922 33.0757 59.0973 33.8598 59.9905 34.6924C60.1887 34.8773 60.4421 34.9688 60.6951 34.9688C60.9669 34.9688 61.2384 34.863 61.4402 34.6529C61.8292 34.2473 61.8112 33.6081 61.3998 33.2245ZM7.52157 45.3654C7.61736 40.8995 7.12703 37.389 6.02297 34.6334C5.44849 33.2 4.71621 31.9904 3.80935 30.9843H6.23627C7.5993 32.4744 8.59448 34.3516 9.19748 36.5713C9.74474 38.5844 10.5859 40.2028 11.7011 41.3938C11.3838 42.5896 11.2219 43.8124 11.2219 45.0382C11.2219 48.1973 11.3348 51.4827 12.4712 54.4245C9.65719 53.6145 7.38024 51.9587 7.52157 45.3654ZM27.4768 7.41936C27.4627 7.40196 27.4618 7.38249 27.4634 7.36896C27.466 7.34691 27.4754 7.33969 27.4785 7.33712C28.2832 6.72043 29.1842 6.15208 30.1562 5.64793C33.0923 4.12503 36.3121 3.3641 39.5332 3.3641C42.7534 3.3641 45.9746 4.12555 48.91 5.6478C49.8818 6.15195 50.7828 6.7203 51.5878 7.33737C51.5908 7.33982 51.6004 7.34691 51.6028 7.3687C51.6045 7.38211 51.6034 7.4017 51.5894 7.4191L49.2313 10.3191L49.2301 10.3204L49.2278 10.3235L48.8319 10.8102C48.8203 10.8247 48.8055 10.8278 48.7896 10.8185C47.0171 9.74741 43.4578 7.95058 39.5333 7.95058C35.6088 7.95058 32.0496 9.74741 30.277 10.8185C30.2617 10.8278 30.2463 10.8248 30.2347 10.8104L29.842 10.3275C29.8396 10.3246 29.8378 10.3217 29.8354 10.3188L29.8319 10.3151L27.4768 7.41936ZM51.0597 27.4127C51.0597 27.6311 50.8793 27.8087 50.6576 27.8087H28.4086C28.1869 27.8087 28.0066 27.6311 28.0066 27.4127V26.6429C28.0066 26.4245 28.1869 26.247 28.4086 26.247H28.5314H50.5346H50.6575C50.8792 26.247 51.0595 26.4245 51.0595 26.6429L51.0597 27.4127ZM39.1036 23.0267C41.9153 23.0267 44.3132 23.5877 46.132 24.2265H32.3894C34.0167 23.591 36.2614 23.0267 39.1036 23.0267ZM37.6891 19.1485C37.6891 18.1243 38.5164 17.2907 39.5329 17.2907C40.5498 17.2907 41.3768 18.1241 41.3768 19.1485C41.377 20.1731 40.5497 21.0063 39.5329 21.0063C38.5163 21.0063 37.6891 20.173 37.6891 19.1485ZM54.2046 28.5311C53.8179 28.3562 53.4249 28.1885 53.0269 28.0273C53.0795 27.8306 53.1103 27.6253 53.1103 27.4126V26.6428C53.1103 25.3797 52.1209 24.3417 50.8658 24.2369C49.9883 23.6703 47.08 21.9761 42.7747 21.295C43.1869 20.6798 43.4277 19.9417 43.4277 19.1483C43.4277 17.0097 41.6803 15.27 39.5326 15.27C37.385 15.27 35.6377 17.0097 35.6377 19.1483C35.6377 19.8975 35.8529 20.5972 36.2236 21.1908C31.7459 21.772 29.0225 23.5748 28.1493 24.2401C26.9179 24.368 25.9549 25.3964 25.9549 26.6426V27.4125C25.9549 27.5169 25.964 27.6191 25.9771 27.7202C25.5647 27.8748 25.1568 28.0377 24.7537 28.2073C24.2907 26.7321 24.0564 25.1959 24.0564 23.6269C24.0567 19.3394 25.8322 15.2981 28.9588 12.3911C29.6316 12.9209 30.5892 12.9998 31.349 12.5404C32.6276 11.768 35.9843 9.97093 39.5326 9.97093C43.0812 9.97093 46.438 11.768 47.7163 12.5404C48.0534 12.7442 48.4294 12.8423 48.8023 12.8423C49.2699 12.8423 49.732 12.6871 50.1061 12.3927C53.2324 15.2985 55.0075 19.3393 55.0075 23.627C55.0079 25.3112 54.7378 26.956 54.2046 28.5311ZM57.075 30.0197C56.741 29.8221 56.4024 29.6287 56.0561 29.4427C56.7218 27.5791 57.0593 25.6271 57.0593 23.6271C57.0593 18.7412 55.02 14.1376 51.4313 10.8453L52.1632 9.94528C56.0196 13.4624 58.2119 18.3924 58.2119 23.6271C58.212 25.8353 57.8291 27.9798 57.075 30.0197Z" fill="white"/>
<path d="M64.6993 37.2047C64.4051 36.728 63.7745 36.5767 63.2902 36.8663C62.8063 37.1561 62.6525 37.7776 62.9467 38.2542C64.2751 40.407 64.9487 42.6894 64.9487 45.0382C64.9487 50.5242 64.3142 54.516 61.1559 57.4624C57.4243 60.9436 50.2132 62.6357 39.1107 62.6357C32.479 62.6357 27.349 62.0744 23.4273 60.9198C22.8853 60.7599 22.3133 61.0638 22.1512 61.5984C21.9889 62.133 22.2973 62.6958 22.84 62.8555C26.955 64.0671 32.2771 64.656 39.1107 64.656C50.9248 64.656 58.378 62.8363 62.5663 58.9291C66.6572 55.1132 66.9999 49.7581 66.9999 45.0383C66.9999 42.3139 66.2259 39.6783 64.6993 37.2047Z" fill="white"/>
</svg>
