<svg width="73" height="69" viewBox="0 0 73 69" fill="none" xmlns="http://www.w3.org/2000/svg">
<path d="M61.5938 18.3281C62.2237 18.3281 62.7344 17.8454 62.7344 17.25C62.7344 16.6546 62.2237 16.1719 61.5938 16.1719C60.9638 16.1719 60.4531 16.6546 60.4531 17.25C60.4531 17.8454 60.9638 18.3281 61.5938 18.3281Z" fill="white"/>
<path d="M37.6406 28.0312C38.2706 28.0312 38.7812 27.5486 38.7812 26.9531C38.7812 26.3577 38.2706 25.875 37.6406 25.875C37.0107 25.875 36.5 26.3577 36.5 26.9531C36.5 27.5486 37.0107 28.0312 37.6406 28.0312Z" fill="white"/>
<path d="M45.625 3.73352V5.25907" stroke="white" stroke-width="2" stroke-linecap="round" stroke-linejoin="round"/>
<path d="M45.625 9.83472V11.3603" stroke="white" stroke-width="2" stroke-linecap="round" stroke-linejoin="round"/>
<path d="M41.5906 7.54688H43.2046" stroke="white" stroke-width="2" stroke-linecap="round" stroke-linejoin="round"/>
<path d="M48.0454 7.54688H49.6594" stroke="white" stroke-width="2" stroke-linecap="round" stroke-linejoin="round"/>
<path d="M32.4873 19.4062C33.5982 18.0941 34.2083 16.466 34.2188 14.7854C34.2187 10.1926 23.9531 6.46875 23.9531 6.46875C23.9531 6.46875 13.6875 10.1926 13.6875 14.7854C13.698 16.466 14.308 18.0941 15.419 19.4062H32.4873Z" stroke="white" stroke-width="2" stroke-linecap="round" stroke-linejoin="round"/>
<path d="M46.0664 54.0927C45.0475 55.3712 44.4926 56.9265 44.4844 58.5271C44.562 59.2726 44.7984 59.9955 45.1795 60.6524C45.5606 61.3092 46.0784 61.8864 46.7018 62.349C48.896 64.2569 51.7686 65.3159 54.75 65.3159C57.7314 65.3159 60.604 64.2569 62.7982 62.349C63.4216 61.8864 63.9394 61.3092 64.3205 60.6524C64.7016 59.9955 64.938 59.2726 65.0156 58.5271C65.0066 56.9093 64.4404 55.3383 63.4028 54.0518" stroke="white" stroke-width="2" stroke-linecap="round" stroke-linejoin="round"/>
<path d="M15.9688 20.4844C15.9688 20.4844 5.70313 10.7812 4.56251 20.4844C3.65571 28.1973 9.23907 33.1847 11.5625 34.9065" stroke="white" stroke-width="2" stroke-linecap="round" stroke-linejoin="round"/>
<path d="M15.9686 19.7695V32.251C14.1564 33.2342 12.567 34.5453 11.291 36.1094C10.0151 37.6735 9.07769 39.4598 8.53238 41.3664C7.98708 43.273 7.84457 45.2625 8.11298 47.2212C8.38139 49.1799 9.05547 51.0694 10.0967 52.7817C12.4325 56.5865 13.6706 60.9042 13.6874 65.3031V65.7656H34.2186V65.3085C34.2893 60.8388 35.5652 56.4601 37.9257 52.5866C39.9518 49.1288 40.4595 45.0569 39.3393 41.2486C38.2192 37.4403 35.5609 34.2005 31.9374 32.2273V19.7695" stroke="white" stroke-width="2" stroke-linecap="round" stroke-linejoin="round"/>
<path d="M23.9531 6.46875C25.213 6.46875 26.2344 5.50336 26.2344 4.3125C26.2344 3.12164 25.213 2.15625 23.9531 2.15625C22.6932 2.15625 21.6719 3.12164 21.6719 4.3125C21.6719 5.50336 22.6932 6.46875 23.9531 6.46875Z" stroke="white" stroke-width="2" stroke-linecap="round" stroke-linejoin="round"/>
<path d="M13.6875 62.5312H25.0938" stroke="white" stroke-width="2" stroke-linecap="round" stroke-linejoin="round"/>
<path d="M28.5156 62.5312H30.7969" stroke="white" stroke-width="2" stroke-linecap="round" stroke-linejoin="round"/>
<path d="M27.375 32.3438H15.9688" stroke="white" stroke-width="2" stroke-linecap="round" stroke-linejoin="round"/>
<path d="M33.0781 38.8125C33.0781 38.8125 36.5 40.9688 35.3594 47.4375" stroke="white" stroke-width="2" stroke-linecap="round" stroke-linejoin="round"/>
<path d="M70.7188 65.7656H34.2188" stroke="white" stroke-width="2" stroke-linecap="round" stroke-linejoin="round"/>
<path d="M63.3047 50.6719H46.1953C45.2504 50.6719 44.4844 51.3959 44.4844 52.2891C44.4844 53.1822 45.2504 53.9062 46.1953 53.9062H63.3047C64.2496 53.9062 65.0156 53.1822 65.0156 52.2891C65.0156 51.3959 64.2496 50.6719 63.3047 50.6719Z" stroke="white" stroke-width="2" stroke-linecap="round" stroke-linejoin="round"/>
<path d="M50.1875 46.3594V44.7422C50.1875 44.3133 50.3678 43.9019 50.6886 43.5987C51.0095 43.2954 51.4447 43.125 51.8984 43.125H59.8828C60.3366 43.125 60.7718 42.9546 61.0926 42.6513C61.4135 42.3481 61.5938 41.9367 61.5938 41.5078V37.1953C61.5938 36.7664 61.4135 36.3551 61.0926 36.0518C60.7718 35.7485 60.3366 35.5781 59.8828 35.5781H57.6016C57.1478 35.5781 56.7126 35.4077 56.3917 35.1045C56.0709 34.8012 55.8906 34.3898 55.8906 33.9609C55.8906 33.532 56.0709 33.1207 56.3917 32.8174C56.7126 32.5141 57.1478 32.3438 57.6016 32.3438H58.7422C59.196 32.3438 59.6311 32.1734 59.952 31.8701C60.2729 31.5668 60.4531 31.1555 60.4531 30.7266V25.875" stroke="white" stroke-width="2" stroke-linecap="round" stroke-linejoin="round"/>
<path d="M55.8906 47.4375V40.4297C55.8906 40.0008 55.7104 39.5894 55.3895 39.2862C55.0686 38.9829 54.6335 38.8125 54.1797 38.8125H53.0391C52.5853 38.8125 52.1501 38.6421 51.8292 38.3388C51.5084 38.0356 51.3281 37.6242 51.3281 37.1953V35.0391C51.3281 34.6102 51.1479 34.1988 50.827 33.8955C50.5061 33.5923 50.071 33.4219 49.6172 33.4219C49.1634 33.4219 48.7282 33.2515 48.4074 32.9482C48.0865 32.6449 47.9062 32.2336 47.9062 31.8047V30.7266C47.9062 30.2977 48.0865 29.8863 48.4074 29.583C48.7282 29.2798 49.1634 29.1094 49.6172 29.1094H51.8984C52.3522 29.1094 52.7874 28.939 53.1083 28.6357C53.4291 28.3324 53.6094 27.9211 53.6094 27.4922V21.5625" stroke="white" stroke-width="2" stroke-linecap="round" stroke-linejoin="round"/>
</svg>
