<svg width="260" height="250" viewBox="0 0 260 250" fill="none" xmlns="http://www.w3.org/2000/svg">
<rect width="32.3195" height="17.7679" transform="matrix(0.724728 0.689035 -0.716914 0.697162 108.254 153.667)" fill="#78B591"/>
<path d="M173.054 207.376L127.774 166.24C125.359 164.046 121.562 164.109 119.224 166.382L108.862 176.459C106.524 178.732 106.502 182.383 108.811 184.681L152.101 227.753C154.485 230.125 158.434 230.146 160.848 227.799L173.201 215.786C175.615 213.439 175.549 209.643 173.054 207.376Z" fill="#F58220" stroke="#78B591" stroke-width="2"/>
<path d="M22.2414 164.052C45.4613 186.128 82.9126 185.925 105.872 163.598C128.809 141.293 128.598 105.348 105.401 83.2928C82.1809 61.2165 44.7296 61.4196 21.7703 83.7464C-1.16716 106.052 -0.956271 141.996 22.2414 164.052ZM95.5548 153.897C78.2213 170.753 49.9743 170.906 32.4441 154.239C14.8917 137.551 14.732 110.325 32.0874 93.4473C49.4209 76.5913 77.6679 76.4381 95.1981 93.1049C112.751 109.793 112.91 137.02 95.5548 153.897Z" fill="#78B591" stroke="#78B591" stroke-width="2"/>
<ellipse cx="42.8248" cy="42.8059" rx="42.8248" ry="42.8059" transform="matrix(0.724728 0.689035 -0.716914 0.697162 63.4729 64.3215)" fill="white"/>
<rect width="56.5611" height="8.07659" rx="4.03829" transform="matrix(0.724728 0.689035 -0.716914 0.697162 126.993 171.483)" fill="white"/>
<path fill-rule="evenodd" clip-rule="evenodd" d="M62.4393 144.402C70.8338 147.576 80.0312 142.266 81.4799 133.409C81.6582 132.319 82.6864 131.58 83.7765 131.758C84.8666 131.937 85.6057 132.965 85.4274 134.055C83.5708 145.406 71.7833 152.211 61.0247 148.144C59.9915 147.753 59.4706 146.599 59.8613 145.566C60.2519 144.533 61.4061 144.012 62.4393 144.402Z" fill="#78B591"/>
<ellipse cx="66.7461" cy="6.51093" rx="66.7461" ry="6.51093" transform="matrix(-0.999985 0.00542427 0.00586688 0.999983 197.097 235.887)" fill="#757575"/>
<path fill-rule="evenodd" clip-rule="evenodd" d="M119.021 6.03882C113.498 6.06877 109.048 10.5701 109.08 16.0929L109.405 71.4051C109.437 76.9278 113.94 81.3806 119.463 81.3507L169.923 81.077L170.005 95.0178C170.01 95.8993 171.071 96.3438 171.702 95.7294L186.865 80.9851L242.17 80.6851C247.692 80.6551 252.143 76.1538 252.111 70.631L251.786 15.3188C251.754 9.79605 247.251 5.34325 241.728 5.37321L119.021 6.03882Z" fill="white"/>
<path d="M109.08 16.0929L110.08 16.087L109.08 16.0929ZM119.021 6.03882L119.016 5.03883L119.021 6.03882ZM109.405 71.4051L108.405 71.411L109.405 71.4051ZM119.463 81.3507L119.458 80.3507L119.458 80.3507L119.463 81.3507ZM169.923 81.077L170.923 81.0711L170.918 80.0715L169.918 80.077L169.923 81.077ZM170.005 95.0178L169.005 95.0237L169.005 95.0237L170.005 95.0178ZM171.702 95.7294L172.4 96.4464L172.4 96.4464L171.702 95.7294ZM186.865 80.9851L186.859 79.9851L186.456 79.9873L186.167 80.2681L186.865 80.9851ZM242.17 80.6851L242.175 81.6851L242.175 81.6851L242.17 80.6851ZM252.111 70.631L251.111 70.6369L251.111 70.6369L252.111 70.631ZM251.786 15.3188L252.786 15.3129L252.786 15.3129L251.786 15.3188ZM241.728 5.37321L241.722 4.37323L241.728 5.37321ZM110.08 16.087C110.051 11.1167 114.056 7.06576 119.027 7.0388L119.016 5.03883C112.941 5.07178 108.044 10.0235 108.08 16.0987L110.08 16.087ZM110.405 71.3992L110.08 16.087L108.08 16.0987L108.405 71.411L110.405 71.3992ZM119.458 80.3507C114.487 80.3776 110.434 76.3699 110.405 71.3992L108.405 71.411C108.44 77.4858 113.394 82.3836 119.469 82.3507L119.458 80.3507ZM169.918 80.077L119.458 80.3507L119.469 82.3507L169.929 82.0769L169.918 80.077ZM168.923 81.0828L169.005 95.0237L171.005 95.0119L170.923 81.0711L168.923 81.0828ZM169.005 95.0237C169.016 96.7856 171.135 97.6758 172.4 96.4464L171.005 95.0125L171.005 95.0119L169.005 95.0237ZM172.4 96.4464L187.562 81.702L186.167 80.2681L171.005 95.0125L172.4 96.4464ZM242.164 79.6851L186.859 79.9851L186.87 81.985L242.175 81.6851L242.164 79.6851ZM251.111 70.6369C251.14 75.6072 247.135 79.6581 242.164 79.6851L242.175 81.6851C248.25 81.6521 253.146 76.7003 253.111 70.6251L251.111 70.6369ZM250.786 15.3247L251.111 70.6369L253.111 70.6251L252.786 15.3129L250.786 15.3247ZM241.733 6.3732C246.704 6.34623 250.757 10.354 250.786 15.3247L252.786 15.3129C252.751 9.23808 247.797 4.34027 241.722 4.37323L241.733 6.3732ZM119.027 7.0388L241.733 6.3732L241.722 4.37323L119.016 5.03883L119.027 7.0388Z" fill="#78B591"/>
<path d="M159.527 39.3636C159.527 41.8712 159.057 44.0189 158.118 45.8068C157.186 47.5871 155.914 48.9508 154.3 49.8977C152.694 50.8447 150.872 51.3182 148.834 51.3182C146.796 51.3182 144.97 50.8447 143.357 49.8977C141.751 48.9432 140.478 47.5758 139.539 45.7955C138.607 44.0076 138.141 41.8636 138.141 39.3636C138.141 36.8561 138.607 34.7121 139.539 32.9318C140.478 31.1439 141.751 29.7765 143.357 28.8295C144.97 27.8826 146.796 27.4091 148.834 27.4091C150.872 27.4091 152.694 27.8826 154.3 28.8295C155.914 29.7765 157.186 31.1439 158.118 32.9318C159.057 34.7121 159.527 36.8561 159.527 39.3636ZM155.289 39.3636C155.289 37.5985 155.012 36.1098 154.459 34.8977C153.914 33.678 153.156 32.7576 152.186 32.1364C151.217 31.5076 150.099 31.1932 148.834 31.1932C147.569 31.1932 146.451 31.5076 145.482 32.1364C144.512 32.7576 143.751 33.678 143.198 34.8977C142.652 36.1098 142.379 37.5985 142.379 39.3636C142.379 41.1288 142.652 42.6212 143.198 43.8409C143.751 45.053 144.512 45.9735 145.482 46.6023C146.451 47.2235 147.569 47.5341 148.834 47.5341C150.099 47.5341 151.217 47.2235 152.186 46.6023C153.156 45.9735 153.914 45.053 154.459 43.8409C155.012 42.6212 155.289 41.1288 155.289 39.3636ZM170.305 51.3409C168.6 51.3409 167.123 50.9659 165.873 50.2159C164.623 49.4659 163.653 48.4167 162.964 47.0682C162.282 45.7197 161.941 44.1439 161.941 42.3409C161.941 40.5379 162.282 38.9583 162.964 37.6023C163.653 36.2462 164.623 35.1932 165.873 34.4432C167.123 33.6932 168.6 33.3182 170.305 33.3182C172.009 33.3182 173.487 33.6932 174.737 34.4432C175.987 35.1932 176.953 36.2462 177.634 37.6023C178.324 38.9583 178.668 40.5379 178.668 42.3409C178.668 44.1439 178.324 45.7197 177.634 47.0682C176.953 48.4167 175.987 49.4659 174.737 50.2159C173.487 50.9659 172.009 51.3409 170.305 51.3409ZM170.327 48.0455C171.252 48.0455 172.024 47.7917 172.646 47.2841C173.267 46.7689 173.729 46.0795 174.032 45.2159C174.343 44.3523 174.498 43.3902 174.498 42.3295C174.498 41.2614 174.343 40.2955 174.032 39.4318C173.729 38.5606 173.267 37.8674 172.646 37.3523C172.024 36.8371 171.252 36.5795 170.327 36.5795C169.381 36.5795 168.593 36.8371 167.964 37.3523C167.343 37.8674 166.877 38.5606 166.566 39.4318C166.263 40.2955 166.112 41.2614 166.112 42.3295C166.112 43.3902 166.263 44.3523 166.566 45.2159C166.877 46.0795 167.343 46.7689 167.964 47.2841C168.593 47.7917 169.381 48.0455 170.327 48.0455ZM181.52 57.5455V33.5455H185.565V36.4318H185.804C186.016 36.0076 186.315 35.5568 186.702 35.0795C187.088 34.5947 187.611 34.1818 188.27 33.8409C188.929 33.4924 189.77 33.3182 190.793 33.3182C192.141 33.3182 193.357 33.6629 194.44 34.3523C195.531 35.0341 196.395 36.0455 197.031 37.3864C197.675 38.7197 197.997 40.3561 197.997 42.2955C197.997 44.2121 197.683 45.8409 197.054 47.1818C196.425 48.5227 195.569 49.5455 194.486 50.25C193.402 50.9545 192.175 51.3068 190.804 51.3068C189.804 51.3068 188.974 51.1402 188.315 50.8068C187.656 50.4735 187.126 50.072 186.724 49.6023C186.33 49.125 186.024 48.6742 185.804 48.25H185.634V57.5455H181.52ZM185.554 42.2727C185.554 43.4015 185.713 44.3902 186.031 45.2386C186.357 46.0871 186.823 46.75 187.429 47.2273C188.043 47.697 188.785 47.9318 189.656 47.9318C190.565 47.9318 191.327 47.6894 191.94 47.2045C192.554 46.7121 193.016 46.0417 193.327 45.1932C193.645 44.3371 193.804 43.3636 193.804 42.2727C193.804 41.1894 193.649 40.2273 193.338 39.3864C193.027 38.5455 192.565 37.8864 191.952 37.4091C191.338 36.9318 190.573 36.6932 189.656 36.6932C188.777 36.6932 188.031 36.9242 187.418 37.3864C186.804 37.8485 186.338 38.4962 186.02 39.3295C185.709 40.1629 185.554 41.1439 185.554 42.2727ZM214.675 38.1591L210.925 38.5682C210.819 38.1894 210.634 37.8333 210.369 37.5C210.111 37.1667 209.762 36.8977 209.323 36.6932C208.884 36.4886 208.346 36.3864 207.709 36.3864C206.853 36.3864 206.134 36.572 205.55 36.9432C204.975 37.3144 204.69 37.7955 204.698 38.3864C204.69 38.8939 204.876 39.3068 205.255 39.625C205.641 39.9432 206.278 40.2045 207.164 40.4091L210.141 41.0455C211.793 41.4015 213.02 41.9659 213.823 42.7386C214.634 43.5114 215.043 44.5227 215.05 45.7727C215.043 46.8712 214.721 47.8409 214.084 48.6818C213.456 49.5152 212.581 50.1667 211.459 50.6364C210.338 51.1061 209.05 51.3409 207.596 51.3409C205.459 51.3409 203.74 50.8939 202.437 50C201.134 49.0985 200.357 47.8447 200.107 46.2386L204.119 45.8523C204.3 46.6402 204.687 47.2348 205.278 47.6364C205.869 48.0379 206.637 48.2386 207.584 48.2386C208.562 48.2386 209.346 48.0379 209.937 47.6364C210.535 47.2348 210.834 46.7386 210.834 46.1477C210.834 45.6477 210.641 45.2348 210.255 44.9091C209.876 44.5833 209.285 44.3333 208.482 44.1591L205.505 43.5341C203.831 43.1856 202.592 42.5985 201.789 41.7727C200.986 40.9394 200.588 39.8864 200.596 38.6136C200.588 37.5379 200.88 36.6061 201.471 35.8182C202.069 35.0227 202.899 34.4091 203.959 33.9773C205.028 33.5379 206.259 33.3182 207.653 33.3182C209.698 33.3182 211.308 33.7538 212.482 34.625C213.664 35.4962 214.395 36.6742 214.675 38.1591ZM222.836 27.7273L222.461 44.1591H218.802L218.439 27.7273H222.836ZM220.632 51.25C219.943 51.25 219.352 51.0076 218.859 50.5227C218.374 50.0379 218.132 49.447 218.132 48.75C218.132 48.0682 218.374 47.4848 218.859 47C219.352 46.5152 219.943 46.2727 220.632 46.2727C221.306 46.2727 221.89 46.5152 222.382 47C222.882 47.4848 223.132 48.0682 223.132 48.75C223.132 49.2121 223.015 49.6326 222.78 50.0114C222.552 50.3902 222.249 50.6932 221.871 50.9205C221.499 51.1402 221.086 51.25 220.632 51.25Z" fill="#78B591"/>
<ellipse cx="148.222" cy="112" rx="7.22222" ry="6" fill="#78B591"/>
<ellipse cx="173.5" cy="112" rx="7.22222" ry="6" fill="#78B591"/>
<ellipse cx="198.778" cy="112" rx="7.22222" ry="6" fill="#78B591"/>
</svg>
