<svg width="18" height="19" viewBox="0 0 18 19" fill="none" xmlns="http://www.w3.org/2000/svg">
<path d="M16 18.5H7C6.46957 18.5 5.96086 18.2893 5.58579 17.9142C5.21071 17.5391 5 17.0304 5 16.5V12.5H7V16.5H16V2.5H7V6.5H5V2.5C5 1.96957 5.21071 1.46086 5.58579 1.08579C5.96086 0.710714 6.46957 0.5 7 0.5H16C16.5304 0.5 17.0391 0.710714 17.4142 1.08579C17.7893 1.46086 18 1.96957 18 2.5V16.5C18 17.0304 17.7893 17.5391 17.4142 17.9142C17.0391 18.2893 16.5304 18.5 16 18.5ZM9 13.5V10.5H0V8.5H9V5.5L14 9.5L9 13.5Z" fill="#CCCCCC"/>
</svg>
