<svg width="38" height="38" viewBox="0 0 38 38" fill="none" xmlns="http://www.w3.org/2000/svg">
<g clip-path="url(#clip0_223_95)">
<path d="M28.4049 28.4049C25.6984 30.468 22.4027 31.611 18.9999 31.6666C7.91659 31.6666 1.58325 18.9999 1.58325 18.9999C3.55274 15.3296 6.28438 12.1229 9.59492 9.59492M15.6749 6.71325C16.7648 6.45814 17.8806 6.33062 18.9999 6.33325C30.0833 6.33325 36.4166 18.9999 36.4166 18.9999C35.4555 20.798 34.3093 22.4908 32.9966 24.0508M22.3566 22.3566C21.9217 22.8233 21.3973 23.1976 20.8147 23.4572C20.232 23.7168 19.603 23.8564 18.9652 23.8677C18.3274 23.8789 17.6939 23.7616 17.1025 23.5227C16.511 23.2838 15.9737 22.9282 15.5227 22.4772C15.0716 22.0261 14.716 21.4888 14.4771 20.8974C14.2382 20.3059 14.1209 19.6724 14.1322 19.0346C14.1434 18.3968 14.283 17.7678 14.5426 17.1852C14.8023 16.6025 15.1766 16.0781 15.6433 15.6433M1.58325 1.58325L36.4166 36.4166" stroke="#F3F3F3" stroke-width="4" stroke-linecap="round" stroke-linejoin="round"/>
</g>
<defs>
<clipPath id="clip0_223_95">
<rect width="38" height="38" fill="white"/>
</clipPath>
</defs>
</svg>
