<svg width="35" height="35" viewBox="0 0 35 35" fill="none" xmlns="http://www.w3.org/2000/svg">
<path d="M17.5 28.8749C17.5 28.8749 30.625 22.5895 30.625 13.0374C30.6136 11.4766 30.0733 9.9658 29.0922 8.75185C28.1111 7.53789 26.7473 6.69256 25.2236 6.35396C23.7 6.01537 22.1065 6.20354 20.7036 6.88772C19.3007 7.5719 18.1713 8.71165 17.5 10.1207C16.8287 8.71165 15.6993 7.5719 14.2964 6.88772C12.8935 6.20354 11.3 6.01537 9.77637 6.35396C8.2527 6.69256 6.8889 7.53789 5.90781 8.75185C4.92673 9.9658 4.38636 11.4766 4.375 13.0374C4.375 22.5895 17.5 28.8749 17.5 28.8749Z" stroke="white" stroke-linecap="round" stroke-linejoin="round"/>
</svg>
