<svg width="28" height="27" viewBox="0 0 28 27" fill="none" xmlns="http://www.w3.org/2000/svg">
<path d="M10.7488 4.5H6.31633C5.4092 4.5 4.67383 5.23537 4.67383 6.1425V10.575C4.67383 11.4821 5.4092 12.2175 6.31633 12.2175H10.7488C11.656 12.2175 12.3913 11.4821 12.3913 10.575V6.1425C12.3913 5.23537 11.656 4.5 10.7488 4.5Z" stroke="#FFCC00" stroke-linecap="round" stroke-linejoin="round"/>
<path d="M21.0313 4.5H16.5988C15.6917 4.5 14.9563 5.23537 14.9563 6.1425V10.575C14.9563 11.4821 15.6917 12.2175 16.5988 12.2175H21.0313C21.9385 12.2175 22.6738 11.4821 22.6738 10.575V6.1425C22.6738 5.23537 21.9385 4.5 21.0313 4.5Z" stroke="#FFCC00" stroke-linecap="round" stroke-linejoin="round"/>
<path d="M10.7488 14.7825H6.31633C5.4092 14.7825 4.67383 15.5179 4.67383 16.425V20.8575C4.67383 21.7646 5.4092 22.5 6.31633 22.5H10.7488C11.656 22.5 12.3913 21.7646 12.3913 20.8575V16.425C12.3913 15.5179 11.656 14.7825 10.7488 14.7825Z" stroke="#FFCC00" stroke-linecap="round" stroke-linejoin="round"/>
<path d="M21.0313 14.7825H16.5988C15.6917 14.7825 14.9563 15.5179 14.9563 16.425V20.8575C14.9563 21.7646 15.6917 22.5 16.5988 22.5H21.0313C21.9385 22.5 22.6738 21.7646 22.6738 20.8575V16.425C22.6738 15.5179 21.9385 14.7825 21.0313 14.7825Z" stroke="#FFCC00" stroke-linecap="round" stroke-linejoin="round"/>
</svg>
