<!DOCTYPE svg PUBLIC "-//W3C//DTD SVG 1.1//EN" "http://www.w3.org/Graphics/SVG/1.1/DTD/svg11.dtd">
<!-- Uploaded to: SVG Repo, www.svgrepo.com, Transformed by: SVG Repo Mixer Tools -->
<svg height="64px" width="64px" version="1.1" id="Layer_1" xmlns="http://www.w3.org/2000/svg" xmlns:xlink="http://www.w3.org/1999/xlink" viewBox="0 0 512 512" xml:space="preserve" fill="#000000">
<g id="SVGRepo_bgCarrier" stroke-width="0"/>
<g id="SVGRepo_tracerCarrier" stroke-linecap="round" stroke-linejoin="round"/>
<g id="SVGRepo_iconCarrier"> <g> <path style="fill:#78B591;" d="M180.781,160.79c0,6.767-5.46,12.25-12.193,12.25h-55.549c-6.733,0-12.193-5.484-12.193-12.25l0,0 c0-6.767,5.46-12.249,12.193-12.249h55.549C175.322,148.541,180.781,154.024,180.781,160.79L180.781,160.79z"/> <path style="fill:#78B591;" d="M171.451,174.411c46.459,0,84.256,38.433,84.256,85.676v85.676c0,8.603-6.86,15.577-15.32,15.577 H41.242c-8.462,0-15.319-6.975-15.319-15.577v-85.676c0-47.243,37.795-85.676,84.253-85.676L171.451,174.411L171.451,174.411z"/> </g> <path style="opacity:0.1;enable-background:new ;" d="M58.428,345.764v-85.676c0-47.243,37.795-85.676,84.253-85.676h-32.505 c-46.458,0-84.253,38.433-84.253,85.676v85.676c0,8.603,6.859,15.577,15.319,15.577h32.505 C65.285,361.341,58.428,354.367,58.428,345.764z"/> <g> <path style="fill:#A5BC79;" d="M259.298,328.903c-2.983,0-5.865-1.136-8.058-3.197c-2.383-2.241-3.737-5.374-3.737-8.653v-36.156 c0-5.576,3.868-10.396,9.291-11.58c20.553-4.485,38.856-15.362,52.926-31.456c2.24-2.559,5.466-4.029,8.861-4.029h20.464 c3.521,0,6.858,1.581,9.097,4.308s3.154,6.32,2.485,9.792c-8.596,44.668-45.831,77.953-90.546,80.944 C259.82,328.896,259.559,328.903,259.298,328.903z"/> <path style="fill:#A5BC79;" d="M433.981,458.454c0,8.161-6.506,14.777-14.531,14.777h-46.498c-8.025,0-14.531-6.615-14.531-14.777 v-20.688c0-8.161,6.508-14.778,14.531-14.778h46.498c8.027,0,14.531,6.617,14.531,14.778V458.454z"/> </g> <path style="fill:#78B591;" d="M343.885,334.554v79.806c0,18.77,14.964,33.985,33.422,33.985h37.781 c18.459,0,33.423-15.217,33.423-33.985v-79.806L343.885,334.554L343.885,334.554z"/> <path style="opacity:0.1;enable-background:new ;" d="M371.846,414.36v-79.806h-27.96v79.806 c0,18.77,14.964,33.985,33.422,33.985h27.96C386.811,448.345,371.846,433.13,371.846,414.36z"/> <g> <path style="fill:#578C6D;" d="M376.167,367.503h-30.88c-4.77,0-8.635-3.88-8.635-8.667c0-4.785,3.865-8.664,8.635-8.664h30.88 c4.769,0,8.635,3.88,8.635,8.664C384.802,363.623,380.936,367.503,376.167,367.503z"/> <path style="fill:#578C6D;" d="M376.167,395.234h-30.88c-4.77,0-8.635-3.88-8.635-8.667c0-4.786,3.865-8.664,8.635-8.664h30.88 c4.769,0,8.635,3.879,8.635,8.664C384.802,391.355,380.936,395.234,376.167,395.234z"/> <path style="fill:#578C6D;" d="M376.167,422.965h-30.88c-4.77,0-8.635-3.88-8.635-8.666c0-4.786,3.865-8.665,8.635-8.665h30.88 c4.769,0,8.635,3.88,8.635,8.665C384.802,419.085,380.936,422.965,376.167,422.965z"/> </g> <path style="fill:#A5BC79;" d="M105.463,456.601c-53.605,0-97.216-44.343-97.216-98.855v-98.856c0-9.928,7.914-17.975,17.675-17.975 h229.785c9.759,0,17.677,8.048,17.677,17.975v98.856c0,54.512-43.613,98.855-97.217,98.855H105.463z"/> <path style="opacity:0.1;enable-background:new ;" d="M51.467,357.746v-98.856c0-9.928,7.914-17.975,17.675-17.975H25.922 c-9.761,0-17.675,8.048-17.675,17.975v98.856c0,54.512,43.611,98.855,97.216,98.855h43.221 C95.078,456.601,51.467,412.259,51.467,357.746z"/> <path style="fill:#FCE9C3;" d="M477.948,208.261H459.86c-4.329,0-7.837,3.508-7.837,7.837c0,4.329,3.508,7.837,7.837,7.837h18.088 c10.133,0,18.379,8.3,18.379,18.501c0,10.202-8.245,18.502-18.379,18.502h-52.021c-16.433,0-29.803,13.415-29.803,29.905v14.329 c0,4.329,3.508,7.837,7.837,7.837s7.837-3.508,7.837-7.837v-14.329c0-7.847,6.337-14.232,14.129-14.232h52.021 c18.777,0,34.052-15.331,34.052-34.175C512,223.591,496.725,208.261,477.948,208.261z"/> <path style="fill:#F2D8A0;" d="M439.632,243.974h-40.884c-19.45,0-35.275-15.882-35.275-35.404s15.825-35.403,35.275-35.403h14.68 c4.329,0,7.837,3.508,7.837,7.837c0,4.329-3.508,7.837-7.837,7.837h-14.68c-10.808,0-19.601,8.851-19.601,19.73 c0,10.879,8.793,19.731,19.601,19.731h40.884c4.329,0,7.837,3.508,7.837,7.837C447.469,240.466,443.961,243.974,439.632,243.974z"/> <g> <path style="fill:#7E8E51;" d="M80.276,293.555H8.634c-4.768,0-8.634-3.88-8.634-8.666c0-4.786,3.866-8.665,8.634-8.665h71.641 c4.769,0,8.634,3.88,8.634,8.665C88.91,289.676,85.045,293.555,80.276,293.555z"/> <path style="fill:#7E8E51;" d="M39.623,334.061H16.644c-4.768,0-8.635-3.88-8.635-8.666c0-4.787,3.866-8.666,8.635-8.666h22.978 c4.768,0,8.634,3.88,8.634,8.666C48.257,330.181,44.39,334.061,39.623,334.061z"/> </g> <path style="fill:#316638;" d="M272.272,461.382c0,6.544-5.283,11.849-11.796,11.849H24.589c-6.514,0-11.795-5.305-11.795-11.849 v-5.926c0-6.543,5.281-11.849,11.795-11.849h235.888c6.513,0,11.796,5.306,11.796,11.849V461.382z"/> <path style="opacity:0.1;enable-background:new ;" d="M56.424,461.382v-5.926c0-6.543,5.281-11.849,11.795-11.849H24.589 c-6.514,0-11.795,5.306-11.795,11.849v5.926c0,6.544,5.281,11.849,11.795,11.849h43.631 C61.705,473.231,56.424,467.925,56.424,461.382z"/> <path d="M448.513,326.717h-15.925c-4.329,0-7.837,3.508-7.837,7.837c0,4.329,3.508,7.837,7.837,7.837h8.089v71.969 c0,14.419-11.478,26.149-25.586,26.149h-37.781c-14.108,0-25.585-11.731-25.585-26.149v-71.969h44.293 c4.329,0,7.837-3.508,7.837-7.837c0-4.329-3.508-7.837-7.837-7.837h-52.131c-4.329,0-7.837,3.508-7.837,7.837v79.806 c0,12.733,5.65,24.148,14.533,31.824v12.269c0,12.47,10.035,22.614,22.368,22.614h46.498c12.334,0,22.368-10.144,22.368-22.614 v-12.27c8.884-7.677,14.532-19.09,14.532-31.823v-79.806C456.35,330.225,452.842,326.717,448.513,326.717z M426.144,458.454 c0,3.826-3.003,6.94-6.695,6.94h-46.498c-3.692,0-6.695-3.114-6.695-6.94v-3.808c3.52,0.993,7.223,1.536,11.052,1.536h37.781 c3.828,0,7.534-0.543,11.054-1.537L426.144,458.454L426.144,458.454z"/> <path d="M354.198,233.166c-3.742-4.557-9.265-7.171-15.153-7.171h-20.464c-5.65,0-11.029,2.444-14.761,6.708 c-6.592,7.539-14.195,13.819-22.557,18.724l0.01-24.685c0-4.329-3.508-7.837-7.837-7.837s-7.837,3.508-7.837,7.837v8.356 c-1.869-0.798-3.852-1.376-5.915-1.705c-9.873-33.591-37.851-59.33-72.409-65.433c0.854-2.231,1.343-4.641,1.343-7.17 c0-11.076-8.985-20.086-20.03-20.086h-55.549c-11.045,0-20.03,9.01-20.03,20.086c0,2.529,0.488,4.94,1.342,7.169 c-34.556,6.103-62.534,31.841-72.407,65.434c-2.065,0.328-4.047,0.906-5.917,1.705v-61.467c0-70.042,55.979-127.025,124.786-127.025 s124.786,56.984,124.786,127.025v16.54c0,4.329,3.508,7.837,7.837,7.837c4.329,0,7.837-3.508,7.837-7.837v-16.54 c0-78.685-63.009-142.699-140.459-142.699S0.354,94.946,0.354,173.631l0.054,184.115c0,30.769,12.894,58.534,33.481,78.024h-9.301 c-10.825,0-19.632,8.83-19.632,19.686v5.926c0,10.855,8.806,19.686,19.632,19.686h235.888c10.825,0,19.633-8.83,19.633-19.686 v-5.926c0-10.855-8.807-19.686-19.633-19.686h-12.738c20.588-19.489,33.481-47.254,33.481-78.024l0.01-24.522 c38.752-10.552,69.183-42.709,77.094-83.811C359.434,243.636,357.933,237.715,354.198,233.166z M113.04,156.378h55.549 c2.402,0,4.356,1.98,4.356,4.413c0,2.434-1.954,4.414-4.356,4.414H113.04c-2.402,0-4.356-1.98-4.356-4.414 C108.684,158.358,110.638,156.378,113.04,156.378z M110.176,182.247h61.275c32.816,0,60.848,21.187,71.652,50.83H38.526 C49.331,203.435,77.361,182.247,110.176,182.247z M260.476,451.443c2.183,0,3.959,1.8,3.959,4.012v5.926 c0,2.212-1.776,4.012-3.959,4.012H24.589c-2.183,0-3.958-1.8-3.958-4.012v-5.926c0-2.212,1.775-4.012,3.958-4.012H260.476z M265.546,357.746c0,4.761-0.37,9.432-1.065,13.999H103.445c-4.328,0-7.837,3.508-7.837,7.837c0,4.329,3.509,7.837,7.837,7.837 h157.207c-6.908,20.336-20.703,37.421-38.538,48.352H59.513c-17.835-10.932-31.629-28.017-38.537-48.352h42.762 c4.328,0,7.837-3.508,7.837-7.837c0-4.329-3.509-7.837-7.837-7.837H17.148c-0.695-4.565-1.065-9.238-1.065-13.999v-98.856 c0-5.591,4.414-10.139,9.839-10.139h229.785c5.425,0,9.84,4.547,9.84,10.139V357.746L265.546,357.746z M342.931,246.451 c-6.478,33.661-30.588,60.281-61.695,70.389l0.02-47.685c12.963-6.172,24.612-14.982,34.361-26.133 c0.753-0.86,1.834-1.354,2.964-1.354h20.464c1.179,0,2.286,0.527,3.04,1.444C342.852,244.047,343.16,245.264,342.931,246.451z"/> </g>
</svg>