<svg width="20" height="20" viewBox="0 0 20 20" fill="none" xmlns="http://www.w3.org/2000/svg">
<path d="M16.1602 11.82H19.0002V2.44C19.0003 2.06492 18.8541 1.70458 18.5927 1.43565C18.3312 1.16672 17.9751 1.01042 17.6002 1C17.4111 1 17.2238 1.03725 17.0491 1.10961C16.8744 1.18198 16.7157 1.28805 16.582 1.42177C16.4482 1.55548 16.3422 1.71423 16.2698 1.88894C16.1974 2.06364 16.1602 2.2509 16.1602 2.44V11.82ZM16.1602 11.82L16.2102 11.94L17.6102 15.28L19.0502 11.82M3.9502 4.6H10.9502M3.9502 7.85H10.9502M3.9502 11.1H8.3702M2.9502 1H11.9502C13.0548 1 13.9502 1.89543 13.9502 3V17C13.9502 18.1046 13.0548 19 11.9502 19H2.9502C1.84563 19 0.950195 18.1046 0.950195 17V3C0.950195 1.89543 1.84563 1 2.9502 1Z" stroke="#BCBCBF" stroke-linecap="round" stroke-linejoin="round"/>
</svg>
