<svg width="78" height="70" viewBox="0 0 78 70" fill="none" xmlns="http://www.w3.org/2000/svg">
<path d="M52.1753 9.85125C52.9372 9.85125 53.5549 9.29692 53.5549 8.61312C53.5549 7.92933 52.9372 7.375 52.1753 7.375C51.4133 7.375 50.7957 7.92933 50.7957 8.61312C50.7957 9.29692 51.4133 9.85125 52.1753 9.85125Z" fill="white"/>
<path d="M70.4565 5.47625C71.2185 5.47625 71.8362 4.92192 71.8362 4.23812C71.8362 3.55433 71.2185 3 70.4565 3C69.6946 3 69.0769 3.55433 69.0769 4.23812C69.0769 4.92192 69.6946 5.47625 70.4565 5.47625Z" fill="white"/>
<path d="M63.5548 53.6351L59.0771 57.6536" stroke="white" stroke-width="1.5" stroke-linecap="round" stroke-linejoin="round"/>
<path d="M59.0771 53.6351L63.5548 57.6536" stroke="white" stroke-width="1.5" stroke-linecap="round" stroke-linejoin="round"/>
<path d="M41.8159 64.1964V67.1288H15.0034V64.1505" stroke="white" stroke-width="1.5" stroke-linecap="round" stroke-linejoin="round"/>
<path d="M48.7251 37.393C51.1918 36.7368 58.7201 34.4585 63.7535 29.9413L67.4098 32.1288C67.4098 32.1288 63.4013 34.2277 62.5348 37.5975C60.2338 46.5444 54.073 49.8618 49.8208 51.0922" stroke="white" stroke-width="1.5" stroke-linecap="round" stroke-linejoin="round"/>
<path d="M43.0347 31.035C43.0347 30.1648 42.6495 29.3302 41.9638 28.7148C41.2781 28.0995 40.3481 27.7538 39.3784 27.7538H17.4409C16.4712 27.7538 15.5412 28.0995 14.8556 28.7148C14.1699 29.3302 13.7847 30.1648 13.7847 31.035" stroke="white" stroke-width="1.5" stroke-linecap="round" stroke-linejoin="round"/>
<path d="M16.9535 5.87878H14.3064C11.8494 5.87878 9.91886 8.61863 10.1456 11.7971L11.5081 31.2538" stroke="white" stroke-width="1.5" stroke-linecap="round" stroke-linejoin="round"/>
<path d="M45.3114 31.2538L46.6739 11.7949C46.8958 8.61863 44.9701 5.87878 42.5131 5.87878H39.8879" stroke="white" stroke-width="1.5" stroke-linecap="round" stroke-linejoin="round"/>
<path d="M42.1633 63.8475H14.6561C13.6078 63.8475 12.5706 63.6543 11.6089 63.2798C10.6472 62.9054 9.78139 62.3577 9.0652 61.6706C8.34901 60.9836 7.79767 60.1719 7.44534 59.2858C7.09302 58.3997 6.94721 57.4581 7.01697 56.5194L8.57697 35.5194C8.66606 34.3038 9.26694 33.1641 10.2578 32.3313C11.2486 31.4986 12.5552 31.0352 13.9127 31.035H42.9128C44.2703 31.0352 45.5769 31.4986 46.5677 32.3313C47.5585 33.1641 48.1594 34.3038 48.2485 35.5194L49.8085 56.5194C49.8783 57.4586 49.7323 58.4006 49.3796 59.2871C49.0269 60.1735 48.475 60.9855 47.7582 61.6726C47.0413 62.3597 46.1748 62.9073 45.2124 63.2815C44.25 63.6556 43.2121 63.8483 42.1633 63.8475Z" stroke="white" stroke-width="1.5" stroke-linecap="round" stroke-linejoin="round"/>
<path d="M41.8159 67.1288H57.6597" stroke="white" stroke-width="1.5" stroke-linecap="round" stroke-linejoin="round"/>
<path d="M28.4097 27.7538V24.4725" stroke="white" stroke-width="1.5" stroke-linecap="round" stroke-linejoin="round"/>
<path d="M24.144 49.0819C24.144 48.2117 24.5293 47.3771 25.2149 46.7617C25.9006 46.1464 26.8306 45.8007 27.8003 45.8007C28.77 45.8007 29.7 46.1464 30.3857 46.7617C31.0713 47.3771 31.4565 48.2117 31.4565 49.0819C31.4565 48.2117 31.8418 47.3771 32.5274 46.7617C33.2131 46.1464 34.1431 45.8007 35.1128 45.8007C36.0825 45.8007 37.0125 46.1464 37.6982 46.7617C38.3838 47.3771 38.769 48.2117 38.769 49.0819C38.769 48.2117 39.1543 47.3771 39.8399 46.7617C40.5256 46.1464 41.4556 45.8007 42.4253 45.8007C43.395 45.8007 44.325 46.1464 45.0107 46.7617C45.6963 47.3771 46.0815 48.2117 46.0815 49.0819" stroke="white" stroke-width="1.5" stroke-linecap="round" stroke-linejoin="round"/>
<path d="M31.4565 21.1913H25.3628C24.3531 21.1913 23.5347 21.9258 23.5347 22.8319C23.5347 23.738 24.3531 24.4725 25.3628 24.4725H31.4565C32.4662 24.4725 33.2847 23.738 33.2847 22.8319C33.2847 21.9258 32.4662 21.1913 31.4565 21.1913Z" stroke="white" stroke-width="1.5" stroke-linecap="round" stroke-linejoin="round"/>
<path d="M37.5503 3.69128H19.269C18.2594 3.69128 17.4409 4.42582 17.4409 5.33191V6.42566C17.4409 7.33175 18.2594 8.06628 19.269 8.06628H37.5503C38.5599 8.06628 39.3784 7.33175 39.3784 6.42566V5.33191C39.3784 4.42582 38.5599 3.69128 37.5503 3.69128Z" stroke="white" stroke-width="1.5" stroke-linecap="round" stroke-linejoin="round"/>
<path d="M11.9565 41.4257C11.9565 40.5554 12.3418 39.7208 13.0274 39.1055C13.7131 38.4901 14.6431 38.1444 15.6128 38.1444C16.5825 38.1444 17.5125 38.4901 18.1982 39.1055C18.8838 39.7208 19.269 40.5554 19.269 41.4257C19.269 40.5554 19.6543 39.7208 20.3399 39.1055C21.0256 38.4901 21.9556 38.1444 22.9253 38.1444C23.895 38.1444 24.825 38.4901 25.5107 39.1055C26.1963 39.7208 26.5815 40.5554 26.5815 41.4257C26.5815 40.5554 26.9668 39.7208 27.6524 39.1055C28.3381 38.4901 29.2681 38.1444 30.2378 38.1444C31.2075 38.1444 32.1375 38.4901 32.8232 39.1055C33.5088 39.7208 33.894 40.5554 33.894 41.4257" stroke="white" stroke-width="1.5" stroke-linecap="round" stroke-linejoin="round"/>
<path d="M11.9565 56.7382C11.9565 55.8679 12.3418 55.0333 13.0274 54.418C13.7131 53.8026 14.6431 53.4569 15.6128 53.4569C16.5825 53.4569 17.5125 53.8026 18.1982 54.418C18.8838 55.0333 19.269 55.8679 19.269 56.7382C19.269 55.8679 19.6543 55.0333 20.3399 54.418C21.0256 53.8026 21.9556 53.4569 22.9253 53.4569C23.895 53.4569 24.825 53.8026 25.5107 54.418C26.1963 55.0333 26.5815 55.8679 26.5815 56.7382C26.5815 55.8679 26.9668 55.0333 27.6524 54.418C28.3381 53.8026 29.2681 53.4569 30.2378 53.4569C31.2075 53.4569 32.1375 53.8026 32.8232 54.418C33.5088 55.0333 33.894 55.8679 33.894 56.7382" stroke="white" stroke-width="1.5" stroke-linecap="round" stroke-linejoin="round"/>
<path d="M61.4865 12.3953L60.4189 14.7654C60.115 15.4384 60.0756 16.1843 60.3071 16.8801C60.5385 17.5759 61.0272 18.1802 61.6925 18.5935C62.358 19.0067 62.8468 19.611 63.0783 20.3069C63.3098 21.0028 63.2702 21.7487 62.9661 22.4217L61.8973 24.7918" stroke="white" stroke-width="1.5" stroke-linecap="round" stroke-linejoin="round"/>
<path d="M67.1562 12.3953L66.0874 14.7654C65.7835 15.4384 65.744 16.1843 65.9755 16.8801C66.207 17.5759 66.6956 18.1802 67.361 18.5935C68.0265 19.0067 68.5152 19.611 68.7468 20.3069C68.9783 21.0028 68.9387 21.7487 68.6346 22.4217L67.5657 24.7918" stroke="white" stroke-width="1.5" stroke-linecap="round" stroke-linejoin="round"/>
</svg>
