<svg width="72" height="70" viewBox="0 0 72 70" fill="none" xmlns="http://www.w3.org/2000/svg">
<g clip-path="url(#clip0_225_323)">
<path d="M35.1114 23.2943C35.72 23.2943 36.2134 22.8146 36.2134 22.2228C36.2134 21.6311 35.72 21.1514 35.1114 21.1514C34.5027 21.1514 34.0093 21.6311 34.0093 22.2228C34.0093 22.8146 34.5027 23.2943 35.1114 23.2943Z" fill="white"/>
<path d="M40.0913 63.8933L30.5797 54.6696C30.1486 54.2516 29.4508 54.2525 29.0212 54.6716C28.5914 55.0907 28.5923 55.7689 29.0233 56.1868L38.5348 65.4105C38.7501 65.6191 39.0316 65.7233 39.3131 65.7233C39.5956 65.7233 39.8781 65.6183 40.0934 65.4084C40.5232 64.9894 40.5222 64.3111 40.0913 63.8933Z" fill="white"/>
<path d="M43.5416 60.5473L34.0302 51.3235C33.5992 50.9057 32.9014 50.9065 32.4716 51.3256C32.0419 51.7446 32.0427 52.4229 32.4737 52.8407L41.9851 62.0644C42.2002 62.2731 42.4819 62.3773 42.7634 62.3773C43.0459 62.3773 43.3284 62.2722 43.5436 62.0624C43.9735 61.6435 43.9727 60.9651 43.5416 60.5473Z" fill="white"/>
<path d="M46.992 57.2013L37.4804 47.9776C37.0491 47.5596 36.3514 47.5607 35.9218 47.9796C35.4921 48.3987 35.4929 49.0769 35.9239 49.4948L45.4354 58.7185C45.6507 58.9271 45.9322 59.0313 46.2138 59.0313C46.4963 59.0313 46.7788 58.9263 46.9941 58.7164C47.4238 58.2974 47.423 57.6191 46.992 57.2013Z" fill="white"/>
<path d="M50.4422 53.8553L40.9306 44.6317C40.4993 44.2137 39.8016 44.2147 39.372 44.6337C38.9423 45.0528 38.9431 45.731 39.3741 46.1489L48.8857 55.3725C49.1009 55.5812 49.3824 55.6853 49.6639 55.6853C49.9465 55.6853 50.2291 55.5803 50.4443 55.3704C50.874 54.9514 50.8732 54.2731 50.4422 53.8553Z" fill="white"/>
<path d="M38.8401 24.017C38.2313 24.017 37.738 24.4968 37.738 25.0885V25.5589C37.738 25.9653 37.3959 26.2958 36.9754 26.2958C36.8699 26.2958 36.8438 26.2809 36.8438 26.2809C36.7245 26.183 36.6324 25.6479 36.5929 25.4195C36.5043 24.9057 36.297 23.7021 35.1107 23.7021C33.9245 23.7021 33.7171 24.9055 33.6285 25.4195C33.5891 25.6481 33.4969 26.1835 33.3803 26.2792C33.3802 26.2794 33.3447 26.2957 33.2463 26.2957C32.8257 26.2957 32.4837 25.9651 32.4837 25.5588V25.0883C32.4837 24.4966 31.9902 24.0169 31.3816 24.0169C30.773 24.0169 30.2795 24.4966 30.2795 25.0883V25.5588C30.2795 27.1466 31.6104 28.4385 33.2462 28.4385C34.1592 28.4385 34.7379 28.0715 35.1107 27.5967C35.4835 28.0714 36.0623 28.4385 36.9753 28.4385C38.6111 28.4385 39.9419 27.1468 39.9419 25.5588V25.0883C39.9422 24.4968 39.4489 24.017 38.8401 24.017Z" fill="white"/>
<path d="M33.0323 16.6213C31.5107 15.7635 27.9171 14.8108 25.206 17.3449C24.7672 17.7551 24.7534 18.4333 25.1753 18.8598C25.3917 19.0787 25.6804 19.1886 25.97 19.1886C26.2448 19.1886 26.5198 19.0893 26.7336 18.8896C28.913 16.8526 31.8017 18.406 31.9304 18.477C32.4564 18.7709 33.1282 18.5962 33.4328 18.0855C33.738 17.5738 33.5588 16.9182 33.0323 16.6213Z" fill="white"/>
<path d="M45.0166 17.3449C42.3054 14.8107 38.7119 15.7636 37.1903 16.6214C36.6638 16.9182 36.4844 17.5738 36.7898 18.0858C37.0954 18.5977 37.7697 18.772 38.2962 18.4749C38.3258 18.4582 41.2839 16.8285 43.4892 18.8896C43.7029 19.0893 43.978 19.1886 44.2528 19.1886C44.542 19.1886 44.8312 19.0784 45.0473 18.8598C45.469 18.4332 45.4553 17.7549 45.0166 17.3449Z" fill="white"/>
<path d="M60.9063 41.0389C60.9063 40.009 60.4928 39.0409 59.7419 38.3127L59.2749 37.8599C54.8047 32.2127 47.9537 30.8905 45.8998 30.614C48.174 28.6429 49.6097 25.7756 49.6097 22.5872V17.4243C49.6097 15.9041 49.3215 14.4489 48.7986 13.1044C49.0541 12.0325 49.342 10.4673 49.4276 8.60497C49.4549 8.01379 48.984 7.51313 48.376 7.48661C47.7681 7.46008 47.253 7.91809 47.226 8.50899C47.2003 9.06776 47.1543 9.59604 47.0965 10.0896C45.9173 8.55999 44.3779 7.30833 42.6037 6.44932C43.9942 4.66268 45.5281 3.29495 46.59 2.45085C46.6816 2.78129 46.7635 3.11557 46.8345 3.4504C46.9576 4.02995 47.5414 4.40278 48.1363 4.28356C48.7325 4.16407 49.116 3.59737 48.9932 3.01782C48.8629 2.40299 48.6999 1.78926 48.5089 1.19372C48.3391 0.664205 47.9124 0.247896 47.3675 0.0800057C46.8189 -0.0891154 46.2184 0.0134237 45.7598 0.355631C44.5568 1.25715 42.355 3.09137 40.4759 5.6461C39.3725 5.33821 38.209 5.16977 37.0052 5.16977H33.2171C32.0133 5.16977 30.8499 5.33807 29.7466 5.64596C27.8695 3.09315 25.6665 1.25811 24.4623 0.355494C24.0056 0.0132869 23.4046 -0.0895256 22.8546 0.0801424C22.3087 0.248717 21.8823 0.666119 21.7149 1.19385C20.13 6.14102 20.9144 10.9524 21.4237 13.1015C20.9003 14.4467 20.6116 15.9027 20.6116 17.4239V18.5149C20.12 18.3023 19.5765 18.1832 19.0045 18.1832H15.0637C12.875 18.1832 11.0944 19.9143 11.0944 22.0421V28.3808C11.0944 29.6554 11.7337 30.7872 12.7166 31.4902V41.2266C12.7166 43.7492 14.466 45.8823 16.8725 46.5138C16.7434 47.4492 16.6484 48.4019 16.5931 49.37C16.5593 49.9609 17.0245 50.4665 17.632 50.4993C17.6528 50.5004 17.6737 50.5011 17.6943 50.5011C18.2748 50.5011 18.761 50.0597 18.7936 49.4892C18.8639 48.2612 18.9981 47.0597 19.1917 45.8934C19.2046 45.844 19.2128 45.7929 19.2186 45.7409C19.7479 42.6432 20.6991 39.7976 22.0006 37.3636C23.9084 37.9667 25.9634 38.4269 28.1301 38.7389C28.4895 42.0525 31.3008 44.6667 34.7638 44.8317L33.779 45.7869C33.348 46.2047 33.3473 46.8832 33.7771 47.302C33.9923 47.5118 34.2747 47.6167 34.5572 47.6167C34.8389 47.6167 35.1204 47.5124 35.3356 47.3039L39.0439 43.7074C39.099 43.6538 39.1554 43.6015 39.2126 43.5507C39.4594 43.3775 39.6943 43.1891 39.9158 42.9869C41.5727 41.8215 43.6981 41.4011 45.6953 41.7951C45.6005 42.1274 45.5505 42.4742 45.5505 42.8285C45.5505 43.8584 45.9638 44.8265 46.7147 45.5547L49.4963 48.252C50.271 49.0032 51.2878 49.3787 52.3054 49.3786C52.6676 49.3786 53.0295 49.3301 53.3807 49.2349C53.8762 51.5493 53.1577 53.9821 51.4061 55.6809L47.2347 59.7253C45.4863 60.1861 44.1065 61.525 43.6285 63.2231L40.9789 65.7926C40.0274 66.7154 38.8374 67.3585 37.532 67.659L37.4784 67.6591L37.4147 67.68C36.6693 67.7641 35.8951 67.8069 35.1113 67.8069C35.0534 67.8068 34.9954 67.8065 34.9375 67.805C33.2943 67.6165 31.812 66.9215 30.6481 65.7924L28.6148 63.8212C27.2445 62.4918 26.4899 60.7161 26.4899 58.8211C26.4899 56.926 27.2446 55.1502 28.6148 53.8209L31.771 50.7595C32.2019 50.3415 32.2028 49.6631 31.7729 49.2442C31.343 48.8253 30.6451 48.8245 30.2143 49.2424L27.0581 52.304C25.2704 54.0382 24.2857 56.3526 24.2857 58.8209C24.2857 59.2478 24.3172 59.6697 24.375 60.085C23.6816 59.7443 22.899 59.5512 22.0704 59.5512H20.4943C19.6392 57.8236 19.0898 55.8749 18.8614 53.7469C18.7982 53.1582 18.2549 52.7307 17.6509 52.7925C17.0455 52.8539 16.606 53.3808 16.6692 53.9693C16.8843 55.9738 17.3585 57.8438 18.0815 59.5513H16.2228C13.3949 59.5513 11.0942 61.7882 11.0942 64.5374V68.9284C11.0942 69.5201 11.5877 69.9999 12.1963 69.9999H26.0968C26.7054 69.9999 27.1989 69.5201 27.1989 68.9284V68.4695C29.5047 69.4046 32.0977 69.9112 34.8008 69.9459C35.1403 69.9812 35.4802 69.9997 35.8195 69.9997C36.4714 69.9997 37.1213 69.9322 37.7631 69.8023L37.8413 69.8021L37.9078 69.7802C39.8854 69.5379 41.7406 69.0397 43.446 68.2946V68.9284C43.446 69.5201 43.9393 69.9999 44.5481 69.9999H58.4486C59.0574 69.9999 59.5507 69.5201 59.5507 68.9284V64.5377C59.5507 61.7883 57.25 59.5516 54.4221 59.5516H52.1394C52.457 58.8025 52.7257 58.0211 52.9455 57.2145L52.9635 57.197C55.4403 54.7948 56.3341 51.2671 55.3396 48.0336L59.7416 43.7648C60.4927 43.0369 60.9063 42.0688 60.9063 41.0389ZM20.6133 35.3723C20.5819 35.4247 20.5501 35.4764 20.5192 35.5293L19.8711 36.6376L19.9079 36.6505C18.7133 38.9528 17.8073 41.5673 17.2355 44.3829C15.8827 43.933 14.9208 42.687 14.9208 41.227V32.2365C14.9683 32.2382 15.0157 32.2401 15.0638 32.2401H19.0047C19.5772 32.2401 20.1211 32.1206 20.6131 31.9079L20.6133 35.3723ZM20.7698 28.3812C20.7698 29.3274 19.9779 30.0972 19.0048 30.0972H18.1365V26.9801C18.1365 26.3884 17.643 25.9086 17.0344 25.9086C16.4258 25.9086 15.9323 26.3884 15.9323 26.9801V30.0972H15.0639C14.0907 30.0972 13.2988 29.3273 13.2988 28.3812V22.0425C13.2988 21.0963 14.0907 20.3265 15.0639 20.3265H19.0048C19.9781 20.3265 20.7698 21.0964 20.7698 22.0425V28.3812ZM24.9952 66.7594C24.9952 66.7662 24.9952 66.773 24.9952 66.7799V67.8572H22.6183V65.7739C22.6183 65.1822 22.1249 64.7024 21.5162 64.7024C20.9076 64.7024 20.4142 65.1822 20.4142 65.7739V67.8572H17.8795V65.7739C17.8795 65.1822 17.3861 64.7024 16.7775 64.7024C16.1688 64.7024 15.6754 65.1822 15.6754 65.7739V67.8572H13.2987V64.538C13.2987 62.9701 14.6106 61.6946 16.2233 61.6946H22.0707C23.6834 61.6946 24.9953 62.9702 24.9953 64.538V66.7594H24.9952ZM27.1992 66.1176V65.4752L28.3839 66.6236C27.9788 66.4694 27.5836 66.3007 27.1992 66.1176ZM54.4228 61.6948C56.0352 61.6946 57.3472 62.9701 57.3472 64.538V67.8572H54.748V65.7739C54.748 65.1822 54.2547 64.7024 53.646 64.7024C53.0372 64.7024 52.5439 65.1822 52.5439 65.7739V67.8572H50.0094V65.7739C50.0094 65.1822 49.5161 64.7024 48.9073 64.7024C48.2985 64.7024 47.8052 65.1822 47.8052 65.7739V67.8572H45.6509V66.5285C45.6507 66.5193 45.6511 66.5103 45.6509 66.5011V64.5378C45.6509 64.3489 45.6708 64.1645 45.7073 63.9856C45.7094 63.9757 45.7112 63.9658 45.713 63.9558C45.9902 62.6664 47.1681 61.6946 48.5754 61.6946L54.4228 61.6948ZM52.321 34.9202C51.9683 35.0974 51.6374 35.3287 51.342 35.6153L50.3288 36.5979L49.8513 35.7815C49.3475 34.8939 48.8033 34.0639 48.2176 33.2962C49.4157 33.6322 50.8519 34.1446 52.321 34.9202ZM23.6341 2.45208C24.6977 3.29754 26.2311 4.66514 27.6192 6.44891C25.8459 7.30723 24.3074 8.5578 23.1282 10.0859C22.8866 8.01735 22.8509 5.27463 23.6341 2.45208ZM22.816 17.4244C22.816 16.0936 23.0845 14.8232 23.5671 13.6584C23.5913 13.6102 23.6111 13.5601 23.628 13.5088C24.7403 10.9441 26.911 8.916 29.6051 7.94284C29.6487 7.93081 29.6916 7.91549 29.7341 7.89813C30.8238 7.52038 31.996 7.31297 33.2175 7.31297H37.0052V7.3127C38.2408 7.3127 39.4261 7.5242 40.5264 7.91044C40.5553 7.9211 40.584 7.93286 40.6135 7.94106C43.3145 8.91559 45.4893 10.9509 46.6001 13.5241C46.6146 13.5666 46.6309 13.6087 46.6508 13.6489C47.136 14.8162 47.4057 16.0898 47.4057 17.4243V22.5872C47.4057 25.5384 45.8705 28.1466 43.5367 29.699C43.4802 29.7284 43.4263 29.7632 43.3751 29.8027C41.9858 30.6842 40.3289 31.1988 38.5499 31.1988H35.1375C35.1289 31.1988 35.1206 31.1983 35.112 31.1983C35.1034 31.1983 35.0951 31.1988 35.0866 31.1988H31.6732C29.9235 31.1988 28.2773 30.702 26.8895 29.8352C26.8198 29.7759 26.7431 29.7272 26.6627 29.6877C24.7907 28.4379 23.4262 26.4991 22.974 24.2001V22.0428C22.974 21.6697 22.9181 21.309 22.816 20.9675V17.4244ZM22.817 29.4517H22.8172C22.8481 29.3473 22.8755 29.2414 22.8975 29.1336C23.3462 29.702 23.852 30.2229 24.4045 30.6917C23.8509 31.1878 23.3213 31.7262 22.817 32.3058V29.4517ZM28.2474 36.5887C26.4516 36.321 24.7416 35.9467 23.142 35.4677C23.1862 35.4029 23.2305 35.338 23.2752 35.2736C23.3254 35.2011 23.3759 35.1291 23.4266 35.0577C23.5079 34.9438 23.5899 34.831 23.673 34.7199C23.7069 34.6745 23.7415 34.6298 23.7757 34.5848C24.195 34.0347 24.6373 33.5188 25.1008 33.0395C25.1468 32.9919 25.1925 32.9439 25.2389 32.897C25.3239 32.8112 25.41 32.7273 25.4965 32.644C25.5631 32.5798 25.6301 32.5163 25.6974 32.4535C25.7728 32.3834 25.8483 32.3139 25.9247 32.2457C26.013 32.1669 26.1023 32.0901 26.192 32.0138C26.2126 31.9962 26.2332 31.9788 26.2538 31.9615C27.4297 32.6046 28.7342 33.0436 30.1146 33.2335C29.1935 34.1413 28.5322 35.2978 28.2474 36.5887ZM38.4957 41.3449C38.2654 41.5123 38.0422 41.6914 37.8292 41.8796C37.3465 42.2011 36.8006 42.4389 36.2137 42.5727V38.401C36.2137 37.8093 35.7202 37.3296 35.1116 37.3296C34.503 37.3296 34.0095 37.8093 34.0095 38.401V42.5727C31.8831 42.0872 30.2948 40.2307 30.2948 38.0193C30.2948 35.4479 32.442 33.3549 35.0861 33.3415H35.1372C37.7813 33.3549 39.9286 35.4479 39.9286 38.0193C39.9287 39.319 39.3797 40.4963 38.4957 41.3449ZM43.9663 31.958C43.9697 31.9609 43.9732 31.9639 43.9766 31.9668C44.0999 32.0706 44.2223 32.1761 44.3432 32.2847C44.3774 32.3154 44.4115 32.3466 44.4456 32.3778C44.582 32.5026 44.7171 32.6299 44.8504 32.7608C44.8634 32.7736 44.8764 32.786 44.8894 32.7989C45.68 33.5818 46.4133 34.4731 47.0836 35.4668C45.481 35.9467 43.7706 36.3213 41.9762 36.589C41.6914 35.2974 41.0296 34.1406 40.1078 33.2325C41.4927 33.0419 42.795 32.6007 43.9663 31.958ZM41.8929 39.785C41.9866 39.4458 42.0545 39.0969 42.0933 38.7393C44.2568 38.4277 46.3115 37.9672 48.2223 37.3636C48.3708 37.6432 48.516 37.928 48.6562 38.22L46.9366 39.8876C45.2895 39.4152 43.539 39.3897 41.8929 39.785ZM58.1853 42.2479L53.5581 46.7351C52.8676 47.4051 51.7434 47.4051 51.0528 46.7351L50.4453 46.146L52.7171 43.9429C53.1481 43.5251 53.1488 42.8466 52.7191 42.4278C52.2895 42.0088 51.5916 42.008 51.1607 42.4258L48.885 44.6328L48.2716 44.038C47.9381 43.7147 47.7548 43.2853 47.7548 42.8289C47.7548 42.4487 47.8836 42.0882 48.1188 41.7914C48.1231 41.7862 48.1267 41.7809 48.1309 41.7755C48.1745 41.7217 48.2206 41.6693 48.2714 41.6199L50.7624 39.2043C50.7661 39.2007 50.7699 39.1973 50.7734 39.1937L52.8984 37.1328C53.244 36.798 53.6976 36.6305 54.1512 36.6305C54.6049 36.6305 55.0585 36.798 55.4038 37.1328L57.659 39.3198C57.6591 39.3199 57.6593 39.3201 57.6594 39.3202L58.1851 39.8299C58.5185 40.1531 58.702 40.5825 58.702 41.0389C58.7021 41.4953 58.5186 41.9246 58.1853 42.2479Z" fill="white"/>
<path d="M28.8241 21.2968L24.3875 20.793C23.7838 20.7242 23.2358 21.1452 23.165 21.7328C23.0943 22.3206 23.5273 22.8527 24.1317 22.9213L28.5683 23.4251C28.6116 23.4302 28.6548 23.4324 28.6974 23.4324C29.2489 23.4324 29.7251 23.0307 29.7906 22.4852C29.8615 21.8976 29.4286 21.3654 28.8241 21.2968Z" fill="white"/>
<path d="M29.7881 25.119C29.7051 24.5327 29.1486 24.1227 28.5461 24.2034L24.6489 24.7243C24.0459 24.8048 23.6243 25.3454 23.7072 25.9316C23.7831 26.4684 24.2556 26.8573 24.7976 26.8573C24.8475 26.8573 24.8983 26.8541 24.949 26.8472L28.8462 26.3263C29.4494 26.2458 29.871 25.7052 29.7881 25.119Z" fill="white"/>
<path d="M47.0583 21.7328C46.9877 21.1449 46.4384 20.7243 45.8358 20.793L41.3992 21.2968C40.7947 21.3654 40.362 21.8975 40.4326 22.4853C40.4981 23.0308 40.9744 23.4325 41.5257 23.4325C41.5684 23.4325 41.6116 23.43 41.6549 23.4252L46.0915 22.9214C46.6962 22.8527 47.129 22.3204 47.0583 21.7328Z" fill="white"/>
<path d="M45.5745 24.7241L41.6774 24.2032C41.0752 24.1232 40.5184 24.5324 40.4357 25.1188C40.3529 25.7051 40.7744 26.2455 41.3773 26.3262L45.2744 26.8471C45.3255 26.8538 45.3758 26.8572 45.4259 26.8572C45.9679 26.8572 46.4404 26.4682 46.5162 25.9315C46.5991 25.3455 46.1775 24.8049 45.5745 24.7241Z" fill="white"/>
</g>
<defs>
<clipPath id="clip0_225_323">
<rect width="72" height="70" fill="white"/>
</clipPath>
</defs>
</svg>
