<svg width="71" height="72" viewBox="0 0 71 72" fill="none" xmlns="http://www.w3.org/2000/svg">
<g clip-path="url(#clip0_225_265)">
<path d="M48.1139 7.34961C48.1139 5.79535 47.5138 4.33243 46.4235 3.23001C45.3341 2.12993 43.8851 1.52405 42.3433 1.52405H40.5851C39.9947 1.52405 39.5164 2.00669 39.5164 2.60198C39.5164 3.19728 39.9947 3.67992 40.5851 3.67992H42.3433C43.3138 3.67992 44.2257 4.06119 44.911 4.7529C45.5982 5.44792 45.9766 6.37001 45.9766 7.34947C45.9766 9.37288 44.3467 11.0192 42.3433 11.0192H37.0714C36.4811 11.0192 36.0028 11.5018 36.0028 12.0971C36.0028 12.6924 36.4811 13.175 37.0714 13.175C38.0419 13.175 38.9539 13.5563 39.639 14.248C40.3264 14.943 40.7048 15.8653 40.7048 16.8446C40.7048 18.868 39.0749 20.5143 37.0714 20.5143H34.2347C33.6444 20.5143 33.1661 20.9969 33.1661 21.5922C33.1661 22.1875 33.6444 22.6701 34.2347 22.6701C35.7054 22.6701 36.9021 23.8789 36.9021 25.3645V27.3153C36.9021 28.8009 35.7057 30.0096 34.2347 30.0096H29.7494C28.2796 30.0096 27.0836 28.8009 27.0836 27.3153V25.3645C27.0836 23.8789 28.2796 22.6701 29.7494 22.6701H31.2527C31.843 22.6701 32.3213 22.1875 32.3213 21.5922C32.3213 20.9969 31.843 20.5143 31.2527 20.5143C30.2823 20.5143 29.3703 20.133 28.6851 19.4413C27.9977 18.7463 27.6193 17.824 27.6193 16.8447C27.6193 14.8213 29.2493 13.1752 31.2527 13.1752H33.2246C33.8149 13.1752 34.2932 12.6925 34.2932 12.0972C34.2932 11.5019 33.8149 11.0193 33.2246 11.0193C32.2544 11.0193 31.3417 10.6377 30.6557 9.94631C29.9694 9.25212 29.5912 8.32989 29.5912 7.34974C29.5912 5.32633 31.2212 3.68019 33.2246 3.68019H35.4327C36.023 3.68019 36.5013 3.19755 36.5013 2.60226C36.5013 2.00697 36.023 1.52432 35.4327 1.52432H33.2246C30.0426 1.52432 27.4541 4.13753 27.4541 7.34974C27.4541 8.88873 28.0412 10.3372 29.11 11.4356C26.9859 12.2961 25.4822 14.3964 25.4822 16.8448C25.4822 18.3988 26.0823 19.8619 27.1726 20.9646C27.2367 21.0294 27.302 21.0924 27.3686 21.1536C25.9227 21.9904 24.9465 23.5646 24.9465 25.3648V27.3156C24.9465 29.9898 27.1012 32.1656 29.7497 32.1656H34.235C36.8842 32.1656 39.0395 29.9898 39.0395 27.3156V25.3644C39.0395 24.3233 38.7128 23.3577 38.1577 22.5667C40.8223 22.0523 42.8424 19.6823 42.8424 16.8446C42.8424 15.4935 42.3887 14.2113 41.5539 13.175H42.3437C45.5253 13.1752 48.1139 10.5618 48.1139 7.34961Z" fill="white"/>
<path d="M68.6779 54.4257H61.6253C61.035 54.4257 60.5566 54.9083 60.5566 55.5036C60.5566 56.0989 61.035 56.5816 61.6253 56.5816H68.1634C67.9083 60.513 64.6559 63.633 60.6949 63.633H10.1219C6.1621 63.633 2.91072 60.5153 2.65368 56.5816H56.8699C57.4602 56.5816 57.9385 56.0989 57.9385 55.5036C57.9385 54.9083 57.4602 54.4257 56.8699 54.4257H44.741C45.4167 54.1228 46.0638 53.7894 46.679 53.4223C49.1966 51.9191 51.2067 49.8805 52.668 47.353C54.0052 48.1294 55.5522 48.5495 57.1356 48.5495C61.8495 48.5495 65.6846 44.9145 65.6846 40.4466C65.6846 35.9786 61.8496 32.3438 57.1356 32.3438C55.8928 32.3438 54.6578 32.6054 53.5386 33.0976C53.4858 33.0935 53.4329 33.0912 53.3797 33.0912H47.0449C46.4546 33.0912 45.9763 33.5738 45.9763 34.1691C45.9763 34.7644 46.4546 35.247 47.0449 35.247H53.2534C53.2961 36.0851 53.2881 36.9841 53.2294 37.858C53.1405 39.2186 52.9315 40.5514 52.6086 41.8188C52.2903 43.0623 51.8611 44.2365 51.3328 45.3101C51.3327 45.3103 51.3325 45.3108 51.3324 45.311C51.3314 45.3131 51.3303 45.3152 51.3294 45.3172C48.3724 51.333 42.372 54.3833 33.4948 54.3833C32.3513 54.3833 31.2485 54.3297 30.1932 54.2268C31.2155 53.0468 31.949 51.6002 32.386 49.9017L35.3782 49.0335C35.9453 48.869 36.2729 48.2718 36.1099 47.6996C35.9467 47.1276 35.3543 46.7975 34.7875 46.9617L31.8848 47.8039C31.2696 47.331 29.8955 46.4254 27.8726 45.938C25.5175 45.3703 21.7948 45.2772 17.1665 47.8636C13.6512 43.3213 13.4436 37.6752 13.5456 35.247H41.9868C42.5771 35.247 43.0554 34.7644 43.0554 34.1691C43.0554 33.5738 42.5771 33.0912 41.9868 33.0912H13.4174C12.3477 33.0912 11.469 33.9322 11.4169 35.0055C11.2914 37.5692 11.4541 43.8375 15.335 49C13.3183 50.3743 11.2774 52.1671 9.25381 54.3462C9.23036 54.3715 9.20936 54.3986 9.18849 54.426H2.13878C1.23526 54.4257 0.5 55.1673 0.5 56.0835C0.5 61.2047 4.45351 65.4093 9.44321 65.7622V68.3228C9.44321 69.3307 10.2562 70.1507 11.2554 70.1507H59.5614C60.5606 70.1507 61.3736 69.3307 61.3736 68.3228V65.7622C66.3632 65.4092 70.3167 61.2044 70.3167 56.0787C70.3167 55.1673 69.5814 54.4257 68.6779 54.4257ZM55.3272 38.4555C55.833 38.0722 56.4728 37.8552 57.1356 37.8552C58.7005 37.8552 59.9738 39.0175 59.9738 40.4464C59.9738 41.8752 58.7005 43.0377 57.1356 43.0377C56.1787 43.0377 55.3114 42.6101 54.7885 41.901C55.0485 40.7854 55.2289 39.63 55.3272 38.4555ZM54.1101 44.2158C54.9607 44.8388 56.0146 45.1933 57.1355 45.1933C59.8791 45.1933 62.111 43.0638 62.111 40.4462C62.111 37.8286 59.8791 35.6991 57.1355 35.6991C56.5367 35.6991 55.956 35.7985 55.413 35.9891C55.4081 35.652 55.3988 35.3166 55.3796 34.9865C55.3745 34.9018 55.3634 34.8189 55.3485 34.737C55.9268 34.5817 56.5292 34.4992 57.1355 34.4992C60.6709 34.4993 63.547 37.1672 63.547 40.4465C63.547 43.7258 60.6708 46.3936 57.1354 46.3936C55.8866 46.3936 54.6704 46.0547 53.634 45.4277C53.8046 45.0335 53.9629 44.6289 54.1101 44.2158ZM17.4627 50.1815C17.464 50.1808 17.4652 50.1801 17.4663 50.1791C17.4687 50.1778 17.4712 50.1761 17.4734 50.1747C22.9698 46.8048 26.9777 47.6365 29.0916 48.614L18.3406 51.7333C17.7735 51.8978 17.4459 52.495 17.6089 53.0672C17.7436 53.5398 18.171 53.8474 18.6353 53.8474C18.7332 53.8474 18.8326 53.8338 18.9312 53.8052L29.9069 50.6207C29.3138 52.0896 28.4021 53.2317 27.1449 54.0811C26.9664 54.2018 26.7749 54.3158 26.579 54.4258H12.1667C13.9473 52.6728 15.7233 51.2491 17.4627 50.1815ZM59.2363 67.9947H59.2361H11.5805V65.7889H59.2364V67.9947H59.2363Z" fill="white"/>
</g>
<defs>
<clipPath id="clip0_225_265">
<rect width="69.8167" height="70.4228" fill="white" transform="translate(0.5 0.625977)"/>
</clipPath>
</defs>
</svg>
