<svg width="23" height="29" viewBox="0 0 23 29" fill="none" xmlns="http://www.w3.org/2000/svg">
<path d="M10.3125 17.0613H9.375C9.375 17.383 9.58331 17.676 9.91031 17.814L10.3125 17.0613ZM4.6875 17.0613L5.08969 17.814C5.41669 17.676 5.625 17.383 5.625 17.0613H4.6875ZM9.375 3.99996V17.0613H11.25V3.99996H9.375ZM7.5 2.33329C8.53556 2.33329 9.375 3.07949 9.375 3.99996H11.25C11.25 2.15901 9.57113 0.666626 7.5 0.666626V2.33329ZM5.625 3.99996C5.625 3.07949 6.46444 2.33329 7.5 2.33329V0.666626C5.42887 0.666626 3.75 2.15901 3.75 3.99996H5.625ZM5.625 17.0613V3.99996H3.75V17.0613H5.625ZM1.875 22.3333C1.875 20.34 3.1872 18.6175 5.08969 17.814L4.28531 16.3086C1.75354 17.3776 0 19.6726 0 22.3333H1.875ZM7.5 27.3333C4.39331 27.3333 1.875 25.0948 1.875 22.3333H0C0 26.0151 3.35786 29 7.5 29V27.3333ZM13.125 22.3333C13.125 25.0948 10.6067 27.3333 7.5 27.3333V29C11.6421 29 15 26.0151 15 22.3333H13.125ZM9.91031 17.814C11.8129 18.6175 13.125 20.34 13.125 22.3333H15C15 19.6726 13.2465 17.3776 10.7147 16.3086L9.91031 17.814Z" fill="black"/>
<path d="M7.5 23.1666V19.8333" stroke="black" stroke-width="2" stroke-linecap="round" stroke-linejoin="round"/>
<path d="M14.0625 14.8333H17.8125" stroke="black" stroke-width="2" stroke-linecap="round" stroke-linejoin="round"/>
<path d="M14.0625 11.5H17.8125" stroke="black" stroke-width="2" stroke-linecap="round" stroke-linejoin="round"/>
<path d="M14.0625 8.16663H17.8125" stroke="black" stroke-width="2" stroke-linecap="round" stroke-linejoin="round"/>
<path d="M14.0625 4.83325H21.5625" stroke="black" stroke-width="2" stroke-linecap="round" stroke-linejoin="round"/>
</svg>
