<svg width="35" height="35" viewBox="0 0 35 35" fill="none" xmlns="http://www.w3.org/2000/svg">
<path d="M16.9313 17.3395C20.1529 17.3395 22.7646 14.7278 22.7646 11.5062C22.7646 8.28452 20.1529 5.67285 16.9313 5.67285C13.7096 5.67285 11.0979 8.28452 11.0979 11.5062C11.0979 14.7278 13.7096 17.3395 16.9313 17.3395Z" stroke="white" stroke-linecap="round" stroke-linejoin="round"/>
<path d="M23.5667 29.2833C24.3324 29.2669 25.0804 29.0498 25.7359 28.6537C26.3914 28.2576 26.9314 27.6963 27.302 27.0261C27.6725 26.3558 27.8606 25.6 27.8475 24.8343C27.8344 24.0685 27.6204 23.3196 27.2271 22.6624C26.1891 21.024 24.7537 19.6745 23.0544 18.7394C21.3551 17.8044 19.447 17.3141 17.5073 17.3141C15.5677 17.3141 13.6596 17.8044 11.9603 18.7394C10.2609 19.6745 8.82557 21.024 7.78754 22.6624C7.39422 23.3196 7.18028 24.0685 7.16715 24.8343C7.15402 25.6 7.34212 26.3558 7.71269 27.0261C8.08325 27.6963 8.62328 28.2576 9.27877 28.6537C9.93425 29.0498 10.6822 29.2669 11.4479 29.2833H23.5667Z" stroke="white" stroke-linecap="round" stroke-linejoin="round"/>
</svg>
